<?xml version="1.0" encoding="UTF-8" standalone="no"?>
<svg xmlns:rdf="http://www.w3.org/1999/02/22-rdf-syntax-ns#" style="image-rendering:optimizeQuality;text-rendering:geometricPrecision;shape-rendering:geometricPrecision" xmlns="http://www.w3.org/2000/svg" fill-rule="evenodd" xml:space="preserve" height="288.22mm" width="432.15mm" version="1.1" clip-rule="evenodd" xmlns:cc="http://creativecommons.org/ns#" xmlns:dc="http://purl.org/dc/elements/1.1/" viewBox="0 0 43214.999 28822"><metadata><rdf:RDF><cc:Work rdf:about=""><dc:format>image/svg+xml</dc:format><dc:type rdf:resource="http://purl.org/dc/dcmitype/StillImage"/><dc:title/></cc:Work></rdf:RDF></metadata>
 <defs><style type="text/css">
   <![CDATA[
    @font-face { font-family:"Arial";src:url("#FontID0") format(svg)}
    .str0 {stroke:#292525;stroke-width:3.31}
    .fil9 {fill:#2B2A29}
    .fil6 {fill:#A2D9F7}
    .fil2 {fill:#A8D4AF}
    .fil3 {fill:#B0CB1F}
    .fil7 {fill:#D7B56D}
    .fil5 {fill:#F08365}
    .fil8 {fill:#F5B5D2}
    .fil4 {fill:#FFF383}
    .fil1 {fill:#292525}
    .fil0 {fill:white}
    .fnt0 {font-weight:bold;font-size:846.67px;font-family:'Arial'}
   ]]>
  </style></defs>
 <g transform="translate(5240,-472)">
  <polygon points="-5240 29294 -5240 472 37975 472 37975 29294" fill="#fff" class="fil0"/>
 </g>
 <g transform="translate(5240,-472)">
  <path d="m4316 3202c32-56 53-162 141-141 159 78 332 116 476 219 71 56 131 159 233 131 123-25 226 71 349 71 109-11 159 102 250 134 78 32 166 18 247 14 42 53 60 152 141 155 71-21 134-78 212-56 102 25 176-64 254-113 138 71 236 222 229 377-32 127-32 268-116 374 67 39 131 88 166 159 39 74 120 92 187 131 46 71 78 148 109 226-4 78-92 116-109 191-21 81-32 162-46 247 113-14 226-42 339-32 95 14 169 81 233 148 53-4 106-4 155-4 46 46 81 102 134 141 78 21 173 14 226 92 123 141 325 176 437 335 78-39 155-120 247-78 92 109 120 254 208 363 60 102 169 155 265 215-25 60-49 123-74 183 92-21 180-56 261-102 113 78 215 173 250 307-78 60-162 113-243 169 78 0 159-4 236 4 67 35 81 113 109 176 32 99 152 102 233 134 14 49 25 102 35 152 162 28 310-78 469-85 116 28 148 148 173 247 102 0 205-4 300-42 116 123 240 236 346 367 67-28 131-74 205-88 148 39 289 102 437 152 85 102 205 169 328 219 0 39 4 74 4 109-42 14-85 25-127 35 25 60 46 120 78 176 113-4 272-39 328 95 18 127 64 240 131 349 78 21 180 28 219 113 49 81 0 173-11 258 39 53 88 95 116 155 18 95-18 201 35 286 88 81 208 123 279 222 28 78 46 159 74 236 67 21 152 21 205 78 81 99 212 109 314 180 14-60 21-123 46-183 92-74 183-152 272-229 120-39 247-14 367-46 18-120 78-289 222-289 148 14 261-134 413-109 88 18 180 4 265-28 120-25 191 99 258 176 138 18 279 49 416 74 127 21 102 180 127 275 131 0 261 0 392 4-7 60-11 123-25 187-28 60-95 85-141 123 7 95-18 205 46 286 35 49 85 95 106 159-28 102-81 198-116 300 131-11 303-25 353 127 0 229-88 448-155 667-18 81 88 95 148 102 120 0 183 116 286 148 134 11 279 11 395 88 53 74 106 152 176 215 39 99 56 205 81 307 123 155 335 92 501 134 106 21 212 18 318 25 187 64 205 321 406 356 14 81-28 198 64 247 95 74 219 85 332 120 138 35 236 155 374 191 95-28 176-88 279-95 99-35 191 32 282 53 32-64 42-152 120-183 131-64 208-194 325-279 95-39 201-32 303-46 95-18 141 81 201 134 53 78 155 56 233 78 14 67 39 134 39 205-25 46-56 92-78 141 11 95 35 191 46 286-85 81-173 166-194 289-78 39-169 67-229 134 21 212 67 427 21 642 113 25 229 67 346 25 116-46 201 71 275 145 81 21 169 35 215 116 81-28 155-81 243-71 56 28 106 71 155 109 64-85 123-166 183-247 201-49 423-35 610 56 95 42 208 35 296 95 39 71 60 152 92 226 78-71 148-152 176-254 39-145 116-275 176-409 64 11 145-11 194 39 56 176 116 356 113 540 7 99 25 201 46 296 88 152 272 166 395 275 109 64 141 194 198 300 35 56 99 99 131 159 11 88-14 180 11 265 64 169 289 201 349 374-7 109-67 205-95 310 138 67 279 131 430 162 99-35 180-106 275-152-32-134-71-268-148-381-56-74-11-162-7-243 14-88-21-180 14-268 64-28 131-32 194-53 99-120 205-240 279-377 14-4 46-7 64-11 88 102 131 233 219 335 53 81-42 152-64 226 0 106 71 201 71 307-4 74-4 152 11 226 102 4 222-35 310 39 159 116 367 134 522 254 53 35 109 92 180 64 53-46 81-109 123-162 60-49 131-88 194-138-14-201 67-413 236-529 25-74 35-155 53-233 56-7 120-39 180-18 85 39 78 145 109 215 109-25 162-123 240-191 123-14 261-11 374 42 106 71 85 219 85 332 123 123 314 162 466 74 138 127 339 169 441 332 113 141 310 67 462 99 194 148 388 342 434 589 120 35 229 131 360 113 113-7 187-109 268-173 169-39 303 116 462 109 134-64 275-120 406-187 42 53 78 109 116 169 95-42 198-67 303-78 131 7 208-155 346-113 106 60 88 191 138 282 88-56 162-176 282-159 49 25 53 92 78 138 71 11 138 32 205 56 64-99 109-212 201-289 60-49 39-141 74-208 56-53 134-85 191-141 25-56 18-120 28-180h162c25 60 46 123 71 183 116-4 236-18 356 0 64 35 116 92 169 145 64-28 123-60 191-81 99-32 198 32 296 49 64 7 106 60 152 106 53-18 109-42 166-49 113 39 222 99 328 152 88 46 28 152 14 226 14 187-11 399-148 536-64 60-28 155-39 233 11 141-155 212-155 349-14 138-148 212-194 332-56 148-67 307-155 441 60 92 152 176 166 293-18 123-166 205-145 342 35 64 88 116 113 187-11 109-78 201-120 300-46 78-18 173-60 250-64 123-42 265-53 399-21 99-74 191-120 282 49 49 102 95 148 152 18 95 35 191 60 286 74 4 148 7 222 7 53 127 134 240 265 293-4 78-11 159-18 236 42 28 85 60 123 95 4 64 0 127 14 191 35 64 85 116 120 180 53 113 11 243 56 356 64 205 11 420-49 614-18 314-215 572-314 861-32 74 39 145 32 222-7 116-42 226-74 339-42 127-176 176-268 258-42 56-42 131-64 198-78 4-155 7-233 7-25-46-49-95-78-141-95-56-208-85-296-162-53-88-106-176-138-275-28 0-56 4-85 4-28 78-60 155-106 226-127 4-226-74-303-169-32 88-60 176-95 261-145 4-296 21-409-85-78 81-145 191-265 212-92 21-183 78-279 60-131-99-268-187-409-265-201-85-381 71-579 88-169 14-123 222-187 332-131 74-261-53-392-78-102-18-145-116-183-198-148 18-296 14-445 14-74 4-127-56-183-92-67-49-145-88-208-145-88-243-95-501-106-755-42 67-85 138-127 205-49 99-169 106-261 134-272 32-402 310-642 409-127 78-275 25-388-53-85 74-169 155-265 219-116-85-243-166-385-205-148-39-236-180-377-226-141-42-159-233-307-254-99-18-191-64-268-123-99-81-247-32-346-113-116-88-247-145-377-205-81-21-162 14-240 25-109 7-176 123-286 116-85 11-134-74-191-123-64 7-127 18-191 28-141-162-349-240-536-339-141 81-310 113-437 222-166 127-342 261-557 279-4-56-7-113-7-166-64-7-141 18-194-35-120-102-293-145-388-279-123-236 35-501-32-748-18-152-152-261-289-307-74-25-138-67-201-113-102 106-261 85-370 176-106 92-226 159-349 215-99 53-212 21-314 25-134 42-243 134-356 208-99 21-194-25-289-35-159-18-310-56-462-106-78-67-106-169-138-261-46-109 21-222 35-328-123 11-272-39-377 42-113 85-272 53-395 7-18-53-35-106-49-159-46-28-99-42-131-85-25-88-35-180-42-272-162-99-367-71-519-187-49-53-78-116-113-176-49 42-95 102-162 123-64-25-120-78-194-74-138 11-247-88-374-131-99-39-219-53-282-152-25-56-14-127 28-173 120-127 138-307 155-473 7-109 49-219 46-328-92-180-183-356-254-547-328-102-677-109-998-233-254-11-501-64-737-141-71-88-85-205-127-307-64 14-127 28-191 46-32-49-56-99-88-145-78-42-166-60-233-120-42-46-67-106-95-162-14 0-49-4-64-4-56 85-123 159-198 226-60 81-102 194-215 212-95 42-180-42-272-42-180 11-360-18-543-4-4 39-7 78-14 116 60 42 123 81 187 120 14 148-109 247-229 303-67-39-131-78-187-123-191-169-445-229-653-370-219-95-423-272-674-258-236-18-469-85-706-60-67 25-99 95-127 155-11 81 116 148 60 233-109 162-233 377-459 367-120 46-233-42-307-134-18-56-25-116-42-173-35-64-106-102-162-148-88-60-131-162-201-236-247-28-490 49-737 25-85-25-166-53-247-85-106-35-138-152-198-233-116 4-233 25-349 7-201-25-409 28-607-42 25-162-14-328 42-483 7-35 7-67-11-99-74-198-166-399-162-614-78 4-152 0-229 0-236 35-469 131-713 109-102 7-191 106-293 67-180-60-321-198-441-339-123-145-314-198-452-325-102-99-212-187-321-282-116-95-265-120-406-155-127-88-205-222-303-339-120-53-261-67-395-64-180 42-240 247-332 388-78-7-166 18-229-35-134-102-272-208-427-282-159-106-286-250-427-377-106-109-275-85-395-166-102-78-219-134-318-215-127-102-289-155-420-250-74-53-21-152-14-222-85-81-131-191-180-293-64-35-134-42-205-56-14 53-32 102-46 155-116 42-243 46-367 46-14-71-35-138-53-205 32-35 67-71 99-106-88-205-293-321-399-515-46-141 11-300-56-437-180-35-349-106-529-141-169-21-279-183-455-173-18-81-39-159-60-236-53 18-102 39-152 56-78-127-229-148-342-229-35-67-35-145-53-219-49 32-99 60-148 92-106-92-219-183-353-240-64-71-113-152-155-233-92-7-180-18-268-39-85-113-99-261-159-385-95 7-205 60-286-25-95-53-131-155-138-261-113-49-222-14-314 56 39 208 85 420 78 631-39 11-81 18-123 18-53-49-95-106-145-155-95-78-88-233-205-289-92-60-194 0-289-4-78 4-99-85-145-127-42-67-145-78-159-162-18-53-28-109-39-162-81-42-162-88-240-138v-159c-162-18-272-145-406-229-71-42-123-109-183-169-74-109-261-7-310-145-49-145-67-303-56-459 64-134 131-275 247-370 56-53 134-88 169-159 11-113-7-226 11-339 64-162 187-293 328-395 120 56 265 148 381 35-18-162-102-325-60-490 78 0 152 14 219 49 28-141 92-272 127-413-39-109-120-205-138-325-11-106-67-201-116-296-18-67-7-141-11-212 64-21 127-42 194-60 25-166 173-247 293-339 78-42 74-141 88-219 198-46 286-247 356-416-60-67-145-127-155-222-25-116-64-229-74-349 49-53 102-102 148-155 53-67 49-180 145-208 148-95 342 81 473-56 99-95 240-148 286-282 67-106 67-233 109-346 46-74 120-120 191-169 95-11 194 25 289 11 145-71 258-194 339-328 67-120 183-198 275-296 95-116 250-155 381-226-7-95-60-208 18-289 64-81 99-180 162-261 152-131 370-145 557-95 131 14 155 173 194 275-11 180 191 279 187 455-4 81 53 145 78 215 0 74-35 138-49 208 85 152 289 261 445 145 49 25 99 49 145 71 28-109 131-155 222-201 7-99 35-194 39-289-35-67-81-127-120-187 53-166 250-127 385-109 88-95 191-180 300-254-4-176 85-339 106-512-39-145-60-303 4-441 0-88-46-215 67-254 173-42 296 123 402 236 71 25 145 35 219 56 11-109 25-233 131-293 60 21 120 46 180 71z" class="fil1 str0" stroke="#292525" stroke-width="3.31" fill="#292525"/>
 </g>
 <g transform="translate(5240,-472)">
  <g fill="#a8d4af">
   <path class="fil2" d="m1018 4084c127-14 261-11 388 7 74 88 81 212 109 318 46 102 127 180 169 279 11 109 21 219 92 303-21 46-42 95-67 138-85 102-243 134-293 268-67 131-131 261-173 402 7 92 102 155 116 250 7 74 4 152 14 229 35 85 102 152 152 226-46 102-56 236-148 310-116 35-233 60-349 95-155-25-310 18-448 88-95 60-198 131-318 134-95-28-173-131-282-113-131 14-261 42-392 56-155 21-300-49-455-56-99 42-176 123-282 159-95 35-159 116-219 194-109-14-219-7-328 7-7-71 11-155-53-205-106-88-116-233-152-360-25-81 60-131 102-187 60-56 64-148 123-205 131-49 268 18 402-11 92-42 159-120 243-176 162-92 212-293 247-462 11-106 109-173 201-208 56 4 116 18 173 21 95 21 169-64 240-113 123-88 198-226 286-349 180-176 377-339 617-427-4-99-74-208-4-296 81-116 131-282 286-318z"/>
   <path class="fil2" d="m1494 5372c56-71 141-109 215-162 113 116 243 250 420 226 109-25 212 18 317 46 39-64 71-131 106-198 127 53 258 99 374 180 127 102 300-32 434 56 95 35 162 166 102 258-85 134-53 303 25 430 148 0 321-11 416 127 56 205-60 402-18 607-81 11-159 18-236 28 14 155 60 335-53 469-67 113-208 95-314 141-123 85-95 265-191 374-49 127-205 148-261 268-71 131-194 222-328 279 0 49 4 95 4 145-169 85-335 180-515 233-282 11-547-92-811-169-148 39-296 71-452 85-21-85-25-194-116-236-123-71-159-215-258-310-64-71-162-74-250-95-32-106-120-173-208-236 53-21 106-42 159-60 21-148 81-296 42-448-25-78-14-162-4-240 92 0 183 25 275 0 145-28 247-148 392-180 88-32 180-11 272-11 95-28 187-71 289-85 159-18 201-201 240-328 42-148-155-229-141-377 11-134-14-272-123-360 56-155 113-310 198-455z"/>
   <path class="fil2" d="m4309 5965c92-21 187-18 282-18 49 60 92 123 152 173 102 46 219 49 328 74 14 106-4 212-56 303-60 14-120 21-176 32-49 131-92 265-127 399-42 183-166 339-173 529-4 78-7 155 11 229 85 138 250 166 392 208 81 159-25 321-46 480 14 92 71 166 102 254 4 99-32 194-64 289-53 166-187 286-275 430-141 14-282 42-423 39-21-88-42-176-67-265-236-42-434 113-607 261-81 56-134 145-187 229-198-46-399-64-593-123-78-64-148-138-226-201-67 35-134 78-205 113-39-95-46-208-102-293-78-32-159-53-236-81-4-18-11-56-14-78 173-85 367-138 526-250 49-71 60-169 141-215 81-60 152-131 205-219s152-131 229-194c99-131 134-293 191-445 88-18 180-25 265-56 162-127 215-349 152-540 81-14 162-32 243-53-21-215 49-427 14-642-42-81-127-127-194-183 11-46 21-92 28-138 169-21 342-7 512-49z"/>
   <path class="fil2" d="m-1335 7418c109-176 314-229 476-346 127 7 250 64 381 60 191-4 377-67 572-64-25 71-60 138-74 215 4 81 39 159 42 243-11 92-32 180-49 268-53 25-106 49-159 74v95c99 49 183 127 208 240 78 14 166 21 236 64 109 88 152 229 215 353-67 28-131 60-198 88-11 49-25 99-35 148-53 18-106 39-162 53-191-60-307-258-504-310-134-25-279-4-395 74-85 64-198 32-296 35-127 4-247-35-363-78-176-21-346 60-462 183-166 71-296 205-466 265-56-85-109-180-123-286-18-152-148-272-131-430 74-14 148-28 219-39 7-141 95-250 212-325 123-64 127-219 240-289 116-85 176-236 318-286 99-35 201-11 300-7z"/>
   <path class="fil2" d="m386 8748c74-49 155-92 236-138 18 81 35 162 56 243 173 11 335-46 501-81 215 53 420 145 646 152-39 148-99 289-152 434-67 113-134 229-191 349 35 49 71 99 106 152-35 106-141 138-236 176-67-42-138-85-208-127-18 25-39 53-56 78 127 127 123 325 243 459 145 166 272 377 265 603 4 99-99 148-180 169-123 11-254-35-374 18-127 32-229 152-370 120-95-18-198 11-289-25-42-95-81-198-187-243-78 64-120 155-159 243-92 0-64-131-113-187-81-81-166-155-250-229-152-42-300-88-448-127-81-81-145-183-240-254-92-85-226-95-325-173 180-88 254-289 409-402 162-14 325-7 476-74 21-67 35-131 53-198 64-39 131-74 198-113-14-85-35-166-56-247 56-14 113-28 169-46-11-95-95-201-21-289 138-49 307 0 423-99 28-49 46-99 74-145z"/>
   <path class="fil2" d="m-1579 8685c131-56 233 67 360 64 127 4 250 25 377 25 116-60 226-152 363-134 187-4 296 162 441 254-56 35-123 64-148 131-14 67 4 138 14 205-53 25-106 49-155 74 21 78 42 159 60 236-64 35-127 71-194 102-7 60-18 116-25 176-131 64-272 81-413 85-102 4-152 102-222 155-102 74-148 198-265 250 14 92 14 183-21 272-46 106 56 250-64 321-148 39-180-169-314-173-155-14-279-123-430-162-148-32-300-64-452-53-92 4-201 4-258-78-60-99-71-219-99-328 74 18 141 39 215 42 60-35 166-64 159-152-4-134-49-261-64-392 74 28 148 56 226 81 14-191 67-377 162-543 159-102 307-222 487-293 67-81 148-155 258-166z"/>
   <path class="fil2" d="m1886 8963c78 120 208 169 339 201 21 95 49 194 85 286 92-4 169-42 247-88 67 60 123 131 198 183 148 35 300 67 455 85 92 39 208 109 173 226-32 141-71 300-4 437 102 71 212 123 303 208-123 88-275 116-416 169-152 145-346 296-346 526 18 120 92 222 173 310 102 113 169 250 279 360 127 141 134 342 243 497 25 49 74 95 56 159-42 60-116 60-180 67-14-141-18-300-123-409-88-99-145-219-176-346-18-116-145-152-240-187-109-46-198 60-289 102-99-64-180-152-286-208-116 21-226 85-349 67-236 14-406-176-557-332 71-49 176-88 183-187 25-265-120-519-293-709-74-81-92-191-123-293 138 11 275-35 381-116 28-102-21-198-46-293 35-138 148-236 187-374 35-116 81-229 127-342z"/>
   <path class="fil2" d="m-3335 10385c39-127 148-205 229-300 56 99 78 215 92 328 4 71 74 95 127 120 123 60 261 25 392 46 138 28 289 28 416 99 99 53 205 88 314 116 64 49 120 120 205 145 120 18 201 183 120 282-95 138-191 289-191 466 21 145 81 279 159 402 42 173 25 356-21 526-56 28-113 56-173 85-14 201 21 402 39 603-64-53-145-95-183-173-42-81-85-173-173-215-95-64-215-25-321-11-67-92-159-162-233-243-18-56-28-116-39-176-67-39-138-78-208-113-11-67-18-134-32-201-183-18-318-155-466-250-92-60-134-183-250-205-60-18-123-25-183-35-28-134-67-272-53-409 28-81 67-152 109-222 67-120 215-166 289-282 35-123-7-258 35-381z"/>
   <path class="fil2" d="m-1332 10509c60 0 120-4 183 0 113 78 212 180 293 289 42 67 127 60 194 81 102 32 205 64 307 92 74 78 159 141 236 219 32 67 46 141 71 212 42 0 81-4 120-4 39-81 78-159 123-236 81 53 102 145 131 229 155 42 325 7 483 42 95 64 176 152 247 243 81 131 229 187 335 293 56-32 109-67 166-99 11 49 18 102 28 152 85 49 173 102 272 123 4-78 11-155 18-233 67 123 88 261 102 395 49 106 120 205 134 325 18 148 109 282 113 430-60 109-169 176-254 261-226 155-349 406-536 596-81 85-191 134-272 219-49 71-81 152-131 226-35-7-71-14-106-21-35-78-81-152-127-226-169-14-321-95-483-131-4-67-4-134-7-201-92-39-191-42-289-25-67-35-123-81-187-120-116-74-166-212-272-293-78-32-169-14-254-25-32-131-74-258-134-381-78 0-159 4-236 0-56-21-99-64-148-95 4-49 7-102 11-155-67-28-138-49-201-85-49-53 14-120 21-180 7-71-11-141-14-208 11-226-219-388-166-617 11-176 169-282 219-441 0-88-71-173-35-265 53-123 11-258 46-388z"/>
  </g>
  <g fill="#b0cb1f">
   <path class="fil3" d="m23920 15631c46-138 123-265 166-406 106 28 106 152 127 236 46 194 46 395 92 586 64 95 141 173 201 268-81 60-187 53-282 74-173 60-349 109-526 152-106-49-212-116-328-138-85 14-169 42-247 85-46 67-67 145-99 219-102 42-219 78-282 173-74 116-198 194-240 332-219 7-363 208-579 233-131 7-261-14-392-14-4-81-7-159-14-240-64-11-127-25-191-39 7-95 21-194 25-293-46-28-92-53-138-81 60-39 123-71 180-116 35-53 49-116 78-169 46-49 109-81 166-116-4-166 123-328 35-487-64-64-152-102-212-173-67-85-131-173-205-250 155 21 310 28 466 11 74 134 191 236 342 265 85-11 162-49 240-78 67 60 148 106 236 123 67-92 113-205 212-265 138-28 279-11 413 21 116 53 240 92 370 106 18 95 39 191 64 286 152-32 268-162 321-303z"/>
   <path class="fil3" d="m20922 15483c64-56 152-67 229-95 71 134 173 254 265 374 71 88 205 116 240 233-14 116-60 226-71 342-74 49-173 88-191 187-18 123-166 138-219 236-46 102-166 102-250 145-92 56-155 152-258 198-85 18-173 11-258 14 0 28 4 81 7 106 67 39 141 64 205 113 49 95-21 187-25 286-11 173-74 353-7 522 21 67 32 138 39 208 219 88 409 236 628 317 205-21 409-71 617-49-81 109-215 162-296 272-71 64-102 180-205 191-92 28-183-18-275-39-102-11-131-141-236-145-176-7-367-35-522 64-113 71-258-28-363 56-74 53-159 4-240 4-56 4-113 25-169 35-4-138-92-247-219-300-95 4-187 32-282 35-120-32-247-78-339-169 42-42 85-81 127-123-14-85-25-169-18-254 134 102 325 233 490 127 74-42 215-60 183-176-78-159-240-282-229-473-14-81 49-134 109-173 116-78 205-194 282-314 71-183 39-406 166-568 95 28 198 78 296 46 85-46 173-92 265-123 11-162 53-321 81-483 32-169 229-191 328-307 46-102 49-222 113-318z"/>
   <path class="fil3" d="m24453 16414c56-32 99-85 145-131 64 56 141 95 201 152 74 109 102 240 187 339 67 74 4 183 53 265 53 176 240 243 353 370-39 113-85 226-99 346 155 102 332 159 508 212-46 109-134 198-194 300-28 176 21 346 78 508-21 71-106 46-159 56-127-7-247 60-328 152-21 74-4 162-56 226-71 95-138 194-208 286-127-92-222-265-399-247-106-4-205-39-303-71-39 53-81 102-120 155-78-134-99-325-258-395-134-60-254-145-381-219-85-42-81-155-152-212-102-7-201 28-300 42-81-35-152-85-226-123 28-92 49-187 74-282 32-131 145-226 169-356 7-106-35-215 0-318 32-120 49-243 32-363-64-92-162-141-247-205 67-78 162-116 261-145 32-95 35-236 159-258 162-67 318 39 445 131 176-85 374-106 550-187 71-18 145-11 215-28z"/>
   <path class="fil3" d="m26164 16890c81-141 205-247 307-370 42 88 92 176 148 254-42 81-92 173-56 268 53 166 42 346 81 515 92 14 183 0 275 4 67 21 102 95 166 123 102 42 212 67 314 106 92 56 180 116 275 166 78-46 159-88 205-169s138-113 215-155c60 99 138 183 194 286 39 180-11 363-64 533-32 21-64 39-95 56-102-67-201-141-318-180-99 11-148 109-187 191-60 127-35 268-7 402-88 74-166 162-275 205-198 64-272 279-356 452-64 123-226 116-339 162-250 81-413 307-512 540-169-123-381-32-564-95-39-35-39-88-53-134-21-145-99-268-113-409-152 42-279-53-413-99 64-106 127-212 205-307 56-67 28-173 78-240 116-120 289-102 437-123 78-166-74-310-60-476-18-102 67-169 116-247 64-88 95-208 201-261 60-42 166-49 180-134 4-169-81-321-159-466-7-127 25-258 11-385 53-4 106-7 162-11z"/>
   <path class="fil3" d="m20978 16950c106-42 215-64 325-78-21 85-53 162-64 250 28 99 145 99 229 120 4 85 7 166 11 250 148-4 296 11 445 7 229-7 381-233 610-229 60-109 127-229 247-279 102 4 247 81 233 205 7 99-21 198-46 296-21 95 18 191 7 289-25 113-116 194-155 303-28 81-49 169-71 254-198 21-402 25-593-28-88-32-145 67-194 120-64 92-180 123-286 131-152 7-300 46-448 28-180-81-346-194-522-286-18-106-71-198-95-303 25-187 56-374 88-561 0-64-25-123-39-183-60-21-120-42-176-71 99-21 212-14 296-81 67-46 127-109 198-155z"/>
   <path class="fil3" d="m18544 17991c138-32 247 64 318 169-42 56-113 109-99 191 18 123-74 222-85 342 95 56 194 113 303 141 116 28 236-11 353-7 56 25 102 67 152 102-4 53-4 106-4 159-92 106-236 92-349 152 28 92 71 183 85 279-32 169-293 145-300 321-11 95 25 183 56 268 46 106 7 222 4 332-162 11-250-159-409-166-85-7-183-53-254 14-60 116-88 247-131 370-120 0-222 56-303 141-113-35-229-67-346-67-201-4-388-67-579-120-32-88-42-187-92-268-173-81-356-148-526-243-39-60-42-138-92-191-67-18-138-11-205-14-67 148-187 258-279 388-39 53-106 67-169 53-109-25-222-28-339-21 18-99 0-215 74-293 39-49 74-95 109-141-102-14-205-21-303-35 53-42 116-78 191-67 286 14 579 14 854-74 166-78 215-279 360-381 120-78 258-127 392-176 127-42 226-138 332-212 106 25 208 78 318 67 127-39 141-180 191-282 56-53 127-85 191-123-71-67-155-120-240-173 35-42 49-116 120-120 162-25 332-46 480-131 81-53 138-134 222-183z"/>
   <path class="fil3" d="m21948 18591c42-78 95-145 148-215 187 49 377 35 564 46 123 42 226 134 328 215 88-21 180-53 272-64 53 7 67 71 102 106-113 74-236 134-353 205-88 56-183-7-275-14-173 28-296 162-416 279-81-42-176-134-272-78-71 116-106 250-74 381 21 99-67 162-116 229-35-21-67-42-102-64-18-134-39-268-99-388-49-64-162-120-102-212 85-109 191-194 300-272 56-32 64-102 95-155z"/>
   <path class="fil3" d="m27674 18947c-35-187-64-452 141-554 102 32 191 102 254 187 74-21 148-39 222-53 25 159 46 321-7 480-78 18-159 28-236 49-92 64-187 134-261 222-67 127-95 272-173 392-74 60-169 88-222 169-64 88-99 201-191 268-113 88-194 205-303 296-88 71-127 180-187 272-81 120-95 268-123 409-25 99 49 183 88 272-67 71-127 148-180 229-74 0-148 11-219 7-64-28-113-78-173-106-201-60-363-201-533-321-102-56-81-191-155-272-243-169-529-261-787-409-4-127-78-261-7-377 60-106 35-247 138-328 67-74 145-201 265-162 109 32 212 92 325 123 88 152 92 332 169 487 191 95 445-25 610 141 88-74 109-187 173-279 102-148 247-272 423-314 99-35 226-39 293-134 95-155 148-367 325-452 123-64 219-162 332-243z"/>
   <path class="fil3" d="m23172 18862c67-46 148-74 229-92 155 42 272 166 423 222 187 78 138 356 310 441 39-56 78-113 113-173 123 35 254 32 381 53 99 67 173 162 258 243-85 88-183 169-254 272-32 116-53 233-120 339 4 95 39 191 53 289-109 25-194 88-222 205-120-32-275-18-342 99-11 85-7 166-7 250-74 11-148 35-219 14-155-42-314 21-466-25-88-28-187-35-258-102-131-106-275-187-420-261 4-74-11-162 39-226 95-134 109-307 71-462-42-74-138-99-208-145 25-109 53-215 88-325 116-28 254-25 353-106 88-159 169-328 198-512z"/>
   <path class="fil3" d="m20368 19025c141-67 300-95 455-71 56 35 102 92 162 127 134 42 275 74 416 67 85-11 148 67 201 123 56 159 53 346 169 480-46 138-106 289-56 434 32 81 53 180 116 243 106 32 212 56 303 113 243 134 540 141 758 321-102 85-215 155-325 229 7 88-18 198 60 265 74 60 166 88 250 131 25 99 56 194 92 289-49 71-88 145-127 219-289-233-653-335-1009-402-109-60-219-109-342-123-102-25-222-46-275-148-95-162-194-321-293-480-265 14-550 39-790-92-208-113-413-229-624-335-148-39-300-32-452-21-14-113 18-233-32-339-39-81-49-166-53-250 102-67 243-102 289-226 46-106-21-212-53-310 166 14 286-106 430-159 116-67 250 53 363-25 109-74 247 4 363-60z"/>
   <path class="fil3" d="m22400 19204c64-134 194-222 335-261 120 25 240 39 363 21-64 116-109 243-176 360-131 53-310 138-423 14-35-39-109-71-99-134z"/>
   <path class="fil3" d="m22082 19123c208 21 307 229 466 342-28 123-53 250-74 377 71 42 141 85 215 123 7 102-4 208-56 300-71 109-67 243-71 367-159-49-318-106-466-187-71-46-152-53-229-64-32-88-78-173-95-265 4-85 11-173 35-254 74-106 173-194 233-307 7-81-14-162-18-243 14-67 39-127 60-191z"/>
   <path class="fil3" d="m24478 20542c152-14 275 81 406 141 155 64 303 145 448 226 109 56 64 205 155 275 123 99 265 180 395 275 99 74 226 88 325 166 67 60 159 25 236 25 81-18 145 42 208 78 56-28 116-60 176-88 102 56 215 88 318 145 67 109 173 183 286 240-39 131-39 272-113 385-39 78-106 155-85 250 32 71 88 127 138 187-28 92-46 191-74 286-74 102-212 64-318 99-60 35-106 85-155 131-145-131-321-212-480-321-180-92-360-212-572-212-127-21-282 0-374-109-60-134-67-293-155-416-60-71-145-120-233-152-74-11-148 28-219 46-28-56-56-113-81-173-198-28-367-145-564-169-229 25-346 339-600 282-169-46-360 21-522-53-56-99-11-205 14-303-32-109-71-222-113-328-74-64-176-81-254-138-39-56-35-127-42-187 113-71 226-141 328-226 162 166 427 194 653 169 67-14 127 35 191 53 78 0 155-18 233-28 18-106 14-212 32-314 78-99 215-60 325-67 32-56 60-116 88-173z"/>
  </g>
  <g fill="#fff383">
   <path class="fil4" d="m18364 20337c85 4 173-4 258 14 95 35 155 152 265 138 215 0 445-85 649 7 222 152 487 233 699 399 60 120 46 268 102 392 74 169 0 349-46 515-42 134-42 279-60 420-49 131-162 226-229 346-11 74 14 148-7 219-35 46-74 85-116 123-53-74-113-145-180-208-81 46-166 106-265 71-254-11-501-106-709-247 56-81 148-145 166-243 32-155 39-314 67-469 14-95 42-205-11-296-88-169-169-339-229-515-243-99-522-74-748-212 81-39 169-53 258-60 42-131 78-265 138-392z"/>
   <path class="fil4" d="m20318 20898c191 11 381 32 572 7 74 159 183 296 268 448 49 85 145 123 226 166-49 138-113 286-53 430 78 194 138 413 78 617-25 64-18 134-28 201-21 71-67 134-95 205-74 194 71 406-32 596-141-7-289-18-413 60-81 49-173 21-258 4 32-46 64-88 92-134-74-35-152-64-219-113-56-78-7-198-74-272-138-78-293-95-441-134 49-78 106-152 166-219-18-56-35-109-53-166 71-85 138-173 198-268 92-127 39-293 81-434 42-205 162-427 64-631-56-113-64-240-78-363z"/>
   <path class="fil4" d="m21405 21974c-60-145-35-307 56-430 56 4 116 4 176 11 67 32 120 92 194 123 392 18 748 212 1076 413-11 46-11 95-46 131-127 145-261 286-370 445-145 198 25 448-78 660-95 176-183 360-286 533-78 127-53 286-60 427-187-28-377-53-561-109-88-18-113-116-141-191-60-120 39-243 18-367-32-166-39-335-49-501-11-148 109-258 148-392 14-250 25-515-78-751z"/>
   <path class="fil4" d="m24093 21935c166-28 318 67 466 131-134 116-113 300-173 452-25 92-109 152-159 233-35 109-39 229-74 342-32 113-120 201-145 314-25 152-123 272-191 409-95-46-180-106-265-166-74 46-152 85-236 99-194 106-360 265-568 342-85 18-166-11-250-4-134 49-250 138-374 208 11-106 14-212 25-318 35-123 134-222 173-346 53-152 194-272 191-441 7-120-25-233-32-349 35-148 152-254 243-367 85-109 183-208 265-321 208 18 420 18 631 42 198 7 307-191 473-261z"/>
   <path class="fil4" d="m24527 22200c32-39 74-67 113-95 49 53 99 109 152 159 64-18 123-46 191-49 78 32 176 60 215 141 4 102-14 201-4 303-39 28-81 60-116 88 11 332-134 642-169 967 78 39 152 78 229 123-67 120-155 236-173 377-53 236 0 480-35 716-85 109-208 215-353 219-116-49-222-127-335-187-141-71-127-254-123-388 21-215 64-480-113-642-39-46-78-92-113-138 60-99 134-198 159-318 14-88 56-166 102-240 67-113 81-243 106-367 7-120 120-183 166-286 60-123 64-258 102-385z"/>
   <path class="fil4" d="m25257 22496c53 120 53 296 201 346 254 39 526 42 751 191 191 120 392 229 564 374-56 67-109 134-162 201-123-85-222-229-385-226-35 81-85 166-60 258 28 99 81 191 106 289-32 138-92 275-74 416 60 155 272 261 226 452-78 99-166 191-222 303-187-102-367-226-575-293-85 53-173 99-265 134-212 88-356 310-596 335-7-35-11-71-18-106 92-64 191-120 247-222 35-289-49-596 71-871 35-88 120-152 134-247-56-78-159-116-240-169 39-169 106-332 131-508 25-123 28-250 60-370 35-35 74-67 113-99-4-60-7-123-7-187z"/>
   <path class="fil4" d="m26263 23427c102 49 183 131 275 198 49 46 116 0 176-11 183-64 381-46 572-78 166-28 314 60 466 99 134 14 268-7 395 32 25 261-35 519-64 776-88 236-95 490-67 737 25 102-56 183-95 268-106-53-222-74-335-92-201-113-406-296-653-236-134 4-247 71-353 145-88-85-183-176-318-159 64-99 138-183 212-268 67-212-123-367-236-519 25-131 67-258 92-392-11-123-95-226-113-349 11-53 32-102 46-152z"/>
   <path class="fil4" d="m28217 23664c21-4 60-4 81-7 92 212 258 402 243 646 92 46 191 85 272 152 81 78 18 198 18 296 123 60 222-46 321-109 46 42 92 81 141 123 123-53 247-102 381-120 11 49 21 95 35 145 173-60 325-183 413-346 81 49 187 64 254 138 39 42 85 85 127 127-187 208-332 462-353 744-4 113 11 222 21 335-180 85-282 282-487 325-106-14-194-102-303-85-78 42-131 120-191 180-81-42-162-85-243-123-99-42-212-60-286-138s-176-109-265-162c-71-60-106-155-191-194-78-39-162-60-243-92 42-102 148-198 120-318-46-226-35-466 49-681 49-109 35-233 49-353 18-159 25-321 35-483z"/>
  </g>
  <g fill="#f08365">
   <path class="fil5" d="m28400 16848c32 0 64 0 99-4 4 60 11 120 14 176 56 11 116 35 176 25 95-25 155-109 219-180 95 7 198-4 289 39 67 95 42 215 32 321 95 49 183 123 296 131 85 14 169-4 258-4 99 56 205 113 300 187 71 85 155 162 261 208-46 247 28 497 138 720-35 56-81 113-106 176 4 134 67 250 155 346-159 148-127 374-229 550-56 95-49 208-35 314 25 116-88 219-46 332 39 113-11 233-74 325-152 74-328 53-490 49-145 56-272 152-416 208-95 25-198 7-293 21-56 64-53 159-99 233-109 53-236 74-360 60-148-123-261-289-416-409-56-39-131-39-194-53-46-123-92-243-138-363-106-109-250-173-395-215 56-106 113-219 229-265 183-85 173-318 268-469 74-71 148-138 233-194 81-21 162-28 243-42 99-219 42-455-4-677 14-166 67-328 32-494-71-162-272-289-226-490 35-99 74-208 162-279 92-64 92-183 116-282z"/>
   <path class="fil5" d="m34659 17663c42 74 85 152 138 222 106-18 212-46 318-35 78 32 116 113 191 145 102 18 183-56 275-85 88 21 173 60 268 74 28 46 56 95 88 141 67-28 127-71 201-81 109 35 208 92 318 134-35 60-71 116-106 176 99 99 32 233 7 349-35 60-99 99-127 162-14 88-4 176-11 265-28 74-99 123-131 194-18 56-25 116-42 173-46 92-145 145-176 243-49 166-92 332-169 487 53 74 106 152 159 226-99 99-198 208-229 349-46 187-123 381-289 494-81 92-205 11-307 49-134 46-279-7-416 35-187 60-381-4-572-14-102-25-152 134-258 88-102-56-212-99-328-81-201 28-406-88-487-272-67-145-208-282-155-452 60-265 88-536 159-797 21-113 138-152 205-226 39-162 78-321 131-480 85 39 183 99 272 49 18-46 32-95 46-141 35-14 74-28 113-39 11-176 109-332 116-508 49-138 222 64 293-60 88-113 141-258 279-325 0-56-18-116 4-169 60-46 131-81 201-116 7-60 14-120 25-176z"/>
   <path class="fil5" d="m27007 20404c99-106 180-233 310-307 145 35 286 95 370 222 53 113 99 233 148 349 71 18 155 18 215 67 141 116 254 265 385 392 162 32 325-11 487-39 4 141-18 282-81 409-116 56-226 123-328 205-88 81-229 28-310 116-145 148-349 215-529 307-109-92-222-180-346-247-67-25-74-102-99-155-141-25-268-95-402-141-71 14-134 56-198 85-18-35-28-71-39-102 32-71 95-116 138-180 4-92-60-162-85-243 18-282 141-557 363-737z"/>
   <path class="fil5" d="m30499 20605c222-7 430-141 653-109-4 113-21 226 4 339 102 71 215 120 303 208 11 71-32 141-46 208 39 49 78 99 109 152 4 71-21 145-7 215 39 92 138 138 194 219 60 99 131 191 183 293-127 198-360 300-473 512-18 106 56 205 85 307-92 134-191 272-226 434-258 42-494 162-744 219-78 18-116-67-169-106 109-131 18-286-25-420-21-194 14-388-39-575-74-35-152-74-229-106 92-250 166-561-7-790 145-42 310-99 377-250-42-162-155-303-265-427-32-88-67-176-67-268 28-64 85-106 134-159 81 39 162 88 254 106z"/>
   <path class="fil5" d="m29660 20626c127-4 250 4 377-7 18 123 49 243 92 363 92 106 183 219 254 339-49 166-243 183-377 243 14 92 60 176 95 261 46 176-28 353-78 522-35 131 141 138 222 187 39 180 11 363 25 543 32 99 78 191 109 289-99 169-307 183-480 208-106 14-187 92-286 116-67-11-131-35-194-56-32-169-81-342-85-515-7-88-4-183-71-250-116-148-205-314-307-469-49-92-159-113-250-145-106-32-208-95-325-81-109 7-183 92-265 155-74 56-173 56-261 78-60-56-120-113-180-169 113-148 318-173 469-272 53-39 99-88 152-127 102-35 222-39 307-116 71-64 152-113 240-152 81-32 78-138 106-205 56-173-14-346 7-519 88-7 180-7 268-14 162-32 286-148 434-208z"/>
   <path class="fil5" d="m35594 21092c67-123 85-261 138-392 4 71-7 145 7 215 28 49 74 92 113 138-74 162-166 318-183 497-67 191-28 406-120 589-25 60-46 120-60 180-109 11-219 25-328 39-180 35-325 159-455 279-74 67-141 152-243 180-71 11-145 7-215 18-95 74-180 162-247 258-99 166 49 360-39 529-152 28-300 120-459 67-81-46-155-102-243-134-35-155-67-318-162-448 46-46 95-92 138-141 67-81 18-219 116-275 116-85 176-229 310-289 145-99 300-183 466-247 11-60 18-120 25-180 60-42 120-85 176-127 7-226-275-250-353-434 254 35 515 78 769 7 180 7 356-25 533-7 131-78 261-176 318-321z"/>
   <path class="fil5" d="m33110 21367c120 53 254 74 388 67 92-7 173 46 261 71 198 39 392 141 519 300-60 42-123 85-191 127-4 60-11 120-14 180-191 71-363 173-529 286-85 78-155 169-247 243-92 60-64 187-106 279-102 116-247 176-388 236-14-127-39-250-67-374-46-113-155-194-176-318-35-120 4-250 49-363 49-92 162-99 236-159 42-64 46-141 67-212 32-138 109-254 198-363z"/>
   <path class="fil5" d="m31935 21967c131 21 261 18 388 11 78 28 141 85 212 127-60 180-95 399 42 554 148 155 134 381 159 579 120-21 272-141 363-7 53 123 64 261 99 392 85 21 173 49 243 113-176 21-349-14-526-28-88 11-155-56-233-85-109 46-191 138-286 212-123-35-250-78-370-127-194-74-399 42-593-35-28-116-102-229-74-356 46-123 138-226 212-332-28-106-60-212-99-318 106-159 265-261 399-392 85-81 53-205 64-307z"/>
   <path class="fil5" d="m27497 22069c49 39 102 85 120 148 39 113 131 198 233 254 85-7 173-25 254-56 102-64 183-176 310-187 123 28 240 81 360 113 88 21 131 106 180 173 74 120 145 247 236 360 39 49 92 106 85 176-4 187 35 370 74 550 21 134 187 138 293 166 102-39 183-127 293-138 131-18 254-53 385-74 46 42 95 85 141 127 254-49 494-152 741-226 92-14 123 99 166 155-162 416-494 730-804 1037-92-64-166-155-272-198-67-32-127-81-187-123-64 148-166 279-307 360-39-39-78-78-116-113-131 25-261 64-385 116-39-42-78-88-116-131-102 39-191 99-279 159 4-85 32-169 11-250-71-106-194-152-307-201 11-254-176-445-258-670-141 7-286-11-427-7-198 21-367-123-564-109-201 14-399 28-596 60 81-81 141-183 233-250 123-32 289-7 360-134 35-106 49-219 88-321-53-71-123-127-152-212 28-102 102-187 127-289 21-88 42-180 81-265z"/>
   <path class="fil5" d="m35195 22418c145-18 303-67 441 7 18 123 42 247 95 360 74 4 148 11 222 18 42 120 127 212 240 275-18 67-46 138-28 212 39 35 88 64 134 95 4 64 0 127 11 191 39 88 145 148 141 254 4 49 4 99 4 148-64 7-169 7-169 99-7 106-35 205-106 282-99-109-60-254-56-385-120 53-233 131-272 261-42-4-81-11-123-14-85 148-250 226-409 261-106 56-116 183-113 289-64-21-123-49-191-49-74 18-141 64-215 95-95-64-180-145-296-173-159-113-325-219-497-310 7-236-183-406-328-568 106-39 222-46 321-106 145-169-60-416 92-579 49-67 102-131 169-180 92-25 191-11 275-46 78-25 123-88 180-138 134-131 286-268 480-300z"/>
   <path class="fil5" d="m32383 23911c102-67 201-145 296-222 64 39 127 92 208 88 131-7 261 39 395 28 120 4 258-32 363 49 138 78 191 236 282 356-88 198-113 413-169 617-28 106 28 205 49 303-14 92-67 176-49 268 32 169 18 346 64 512-7 78-39 155-35 236 7 67 39 131 60 194-85 28-169 53-250 81-141-95-286-180-430-268-233-85-448 56-674 99-166 28-155 233-194 360-116-53-240-88-356-138-159-201-116-473-116-709 0-141 138-222 194-335 18-95 25-191 46-282 32-99-46-208 18-300 109-155 35-346 46-519 49-109 145-191 191-303 21-39 25-92 64-116z"/>
   <path class="fil5" d="m31388 23734c180 71 367-11 550 11 123 35 236 88 356 131-14 169-155 282-226 430-14 116 11 233 7 353 4 116-120 201-88 321 25 141-7 282-25 420-53 106-173 176-187 300-14 194-14 385-32 575-53 49-127 28-191 35-99-4-212 35-293-39-95-78-233-131-268-261-46-169-60-349-60-526 4-64-32-116-56-173-39 4-78 7-116 7-35 95-67 191-123 272-123 74-268 88-402 109-11-106-49-212-18-317 25-116 78-226 127-332 116-258 356-420 540-624 180-222 385-430 504-691z"/>
   <path class="fil5" d="m36200 24440c106-109 141-254 173-399 46 32 92 64 138 92 7 141 4 279-42 413-42 120-42 250-81 370-78 194-173 377-250 568-46 106-25 215 11 321-14 95-35 194-71 289-46 106-180 120-254 201-42 60-49 131-64 198-32 4-67 7-99 11-25-49-46-99-81-141-85-46-180-67-258-127-81-106-134-233-201-346-46 7-88 18-131 32-106 11-99 145-141 219-123-49-183-212-339-183-21 88-35 183-74 268-141 49-258-46-377-99-49 46-99 95-145 145-28-49-56-99-81-148 21-60 49-116 67-180 7-85-74-159-53-247 18-99 0-198-25-296-28-95 42-180 81-261-32-64-71-123-85-194-14-88 21-173 46-254 28-95 39-198 64-293 145 32 265 116 388 194 71 46 120 134 215 141 109 18 180 148 300 134 64-21 116-53 180-74 78 14 148 46 222 74 35-109 25-236 99-332 53 7 109 14 162 25 74-148 240-191 374-261 60-53 88-134 138-198 28 131 74 265 194 339z"/>
   <path class="fil5" d="m30404 17733c71 0 145-4 219 4 201 141 385 339 434 586 141 49 272 148 427 123 127 25 194-99 296-148 155-32 282 102 437 106 127-67 258-123 385-191-18 42-35 85-53 123 88 18 183 67 268 18 131-74 293-32 409-123 46-25 95-78 148-39 32 81 18 187 92 243 123 46 201-81 293-141 7 134 56 272 7 399-32 81-56 159-92 236-60 78-123 155-176 240-67-35-123-106-205-102-116 145-99 346-169 512-67 81-176 134-201 247-85 303-127 621-176 931 32 222 205 392 296 593-141 152-205 349-240 550-92 39-180 85-265 138-78-42-145-134-243-123-152 28-307-39-452 32-53-106-120-205-215-279-67-42-53-123-39-191 25-92-60-155-92-233 0-67 21-138 35-205-95-102-212-180-328-258 0-102 7-201 21-300-71-28-141-95-222-60-145 49-293 85-445 116-109 18-201-56-289-99 64-148-11-307 49-452 53-123-46-254 21-370 49-113 99-226 116-349 11-116 99-201 155-296-95-85-183-191-162-325 39-81 88-155 134-233-85-78-120-191-169-289-32-127-14-261-11-392z"/>
  </g>
  <g fill="#a2d9f7">
   <path class="fil6" d="m15263 9810c127 11 250 0 374-21 67 53 99 138 145 208 64-7 127-28 191-7 95 32 198 18 293 53 21 81 7 183 74 247 113 18 226 7 335 11-4 28-11 78-14 102-49 21-95 42-141 64-14 183 0 385 145 515-56 127-99 265-85 402 78 11 155-4 229-25 35 25 67 46 102 71-18 95-49 191-49 293-32 148-109 289-113 445-88 18-176 46-265 67-116 7-247-25-346 56-28 49-35 106-49 162-131 42-205 152-296 243-102-67-205-131-296-212-95 60-102 176-120 275-85 42-187 74-222 169-46 120-162 183-279 219-74 18-92 99-131 155-99-7-201-18-300-7-71 14-95 88-127 145-39 92-138 145-176 240-42 92-78 187-123 275-88-11-155-64-215-120-71 11-141 18-212 25-35-148-78-293-152-427-39-67-42-148-32-222 56-106 131-201 152-321-102-106-243-159-385-194-7-60-21-123-25-187 21-46 71-67 106-106 78-56 42-176 113-240 116-127 261-236 342-395 25-60 88-81 141-109 18-215 60-423 78-635 99-53 250-92 282-215-42-116-106-226-109-353 85-53 155-123 226-194 85-53 187-28 279-35 60-18 116-42 173-64 18-85 18-226 131-236 131-7 233-88 353-116z"/>
   <path class="fil6" d="m16420 12290c99 21 187-49 286-56 102-7 205 11 303 28 99 56 187 166 314 152 92-4 180 18 268 39 64 173 250 293 229 497 56 81 162 113 236 180 78 176 152 356 250 522 42 67 25 152 28 226-11 208 74 402 127 600-85 109-229 102-346 152-64-71-123-148-201-201-67-7-141-4-208-4-18 78-32 155-49 233-145-42-300-64-441-131-155-18-325 56-476-18-131-46-233-141-332-233-95-92-236-106-339-191-166-138-363-233-561-318-141-39-286-49-430-60-42-95-113-173-198-236-85-49-88-173-35-243 95-53 205-74 282-148 46-49 67-120 106-176 56-42 120-67 176-106 42-71 39-155 60-233 99 56 187 123 286 176 85 14 141-60 187-120 42-64 120-85 180-131 32-56 42-120 78-173 67-42 145-39 219-28z"/>
   <path class="fil6" d="m12719 12886c152-32 310-56 455-113 116 7 222 64 318 131-46 162-208 293-141 476 81 166 148 339 191 519 109 11 233-4 325 74 56 42 127 25 191 28 88-145 123-321 254-434 64-60 74-162 148-208 95-4 208-28 279 49 88 102 215 173 272 296-120 46-265 74-335 194-49 106 46 201 81 300-92 81-169 176-261 258-131 102-166 275-212 427-71 14-169-4-205 74-42 71-74 145-106 219-176 11-307-113-473-141-28 148 56 272 138 385-131-78-279-102-423-56-28-35-56-71-85-106-95 21-205 53-282-25-95-88-222-113-339-159-120-56-254-7-381-4 11-120 28-236 7-356-18-99 134-173 60-272-102-64-205-127-303-198-92-4-176 42-265 49-78-7-152-25-229-42 0-162-64-310-116-462-56-127 60-240 78-363 4-102 116-138 131-236 11-95-18-194-18-289 187 88 395 88 582 173 127-28 250-60 381-53 120 25 176-113 286-134z"/>
   <path class="fil6" d="m18138 13144c212-7 427 7 631 71 85 120 162 247 300 314 4 64 11 123 18 187 74 46 141 106 229 127 113 28 236 42 332 116 95 71 201 152 325 123 81-35 159-95 250-88 95-14 176 85 268 42 67-21 92-99 145-141 116-109 212-240 349-325 88-21 180-28 268-42 56 60 106 127 166 183 60 25 127 25 194 39 18 88-35 162-67 236-4 95 25 187 39 279-56 67-116 134-162 208-56 127-261 127-265 289 14 159 78 314 46 473-71 113-208 123-307 194-92 88-95 229-148 342-95 102-272 131-314 282-35 155-78 310-92 469-92 42-173 99-258 159-102-18-229-123-321-28-85 148-88 321-120 480-18 106-106 176-166 261-88 109-286 155-258 328-11 208 155 342 240 512-85 35-162 92-250 116-95-14-219-21-258-127-46-99-95-208-194-265-113-85-261-35-370 32-21-85-35-169-46-258-183-109-377-201-572-289 169-176 215-420 254-656 106-28 229-25 310-113 141-131 325-222 413-399 92-134 85-300 113-455 21-113 49-229 74-342 25-95 102-155 162-226-64-166-169-318-300-437-74-81-176-138-226-236-78-148-116-310-162-469-46-152-7-307-35-459-95-159-201-321-236-508z"/>
   <path class="fil6" d="m14709 13952c102-138 275-183 441-187 173 18 349 42 501 138 194 64 339 205 512 303 205 71 328 272 533 346 92 46 194 46 296 49-123 109-180 261-265 399-25 42-53 88-46 141 11 169 11 342 71 504-28 159-131 293-141 455 7 49 46 85 71 131 95 127 28 296 49 445-226 42-448-39-667-71-25-92-42-187-99-261-95-92-233-95-346-145-169-74-356-78-536-95-152-18-282-106-413-183 32-64 67-127 102-191-81-60-194-78-254-159 7-60 25-116 39-173-53-56-127-106-134-187-11-88-49-169-109-233 49-138 81-282 152-409 102-113 222-205 325-318 42-106-46-208-81-300z"/>
   <path class="fil6" d="m17750 14470c46 0 95 0 141 7 81 53 138 134 201 208 134-32 275-64 402-131 134 261 455 388 526 691-296 293-123 780-385 1094-95 116-236 183-342 289-71 85-191 78-289 106-176-162-427-243-663-236-180-7-307 201-494 138-92-42-53-159-53-240 25-116-74-208-134-300 39-123 92-243 131-367 42-113-35-222-35-335 0-102-21-205-4-307 95-194 198-395 374-533 155 74 325 113 494 155 120 11 109-159 131-240z"/>
   <path class="fil6" d="m14138 14971c88 53 226 92 219 219-7 95 56 166 120 229-28 39-49 78-74 116 60 113 169 176 289 205-25 46-49 88-74 131-85-14-169-28-254-35-11 155 0 310-46 455-56 64-123 109-183 166 21 53 49 106 81 155-85 85-131 194-152 307-14 88-106 123-183 138-81 7-127 78-187 123-18-53-32-113-60-162-60-74-173-127-166-236 81-116 198-201 296-303 127-159 95-444 328-508 4-173-198-215-303-310-56-194-166-367-247-554 134 67 275 148 430 134 106-46 116-176 166-268z"/>
   <path class="fil6" d="m14427 15885c198 64 363 201 564 265 191 35 395 18 579 95 85 35 176 56 265 88 141 81 183 254 134 406-102-35-194-95-300-127-173-14-374 123-325 318 67 74 169 95 258 131-131 148-176 363-138 561 53 141-134 180-208 268-81-32-162-74-250-92-106 0-198 71-303 56-134-53-240-187-395-180-109 7-187-78-279-116-64 32-120 74-176 113-88-127-233-219-395-205-194 28-395 42-589 28 56-71 92-162 166-212 173 0 349 21 515-32 201-21 367-148 550-219 25-155 78-307 205-406-28-56-60-113-88-166 49-42 106-78 152-127 46-145 49-300 60-448z"/>
   <path class="fil6" d="m16903 16707c187 28 314-187 501-159 169 25 339 74 483 166 106 99 35 250 14 370-21 162-166 265-201 420 208 53 395 159 582 265 14 106 46 208 85 307-159 88-335 155-519 155-138 0-162 155-183 258-60-18-123-35-187-49-60 71-123 138-187 201-116-152-166-342-155-533-106-35-215-49-321-78-166-53-342-14-512-46-99-11-187-49-279-67-127-7-250 46-377 25-95-18-187-49-282-67 60-46 145-78 162-159 4-102-25-205-14-307 14-141 95-261 194-363-106-56-215-92-325-138 25-60 18-145 88-173 67-28 145-88 222-49 92 28 176 102 279 99 42-35 74-78 109-120 169 39 346 67 522 85 99-4 198-53 300-42z"/>
   <path class="fil6" d="m15690 18002c166-4 335-53 494 18 215 85 455-18 660 88 71 32 152 14 229 21 25 201 28 462 229 571 78-64 148-134 212-208 205 49 240 392 32 455-85-11-159-56-243-56-148-18-219 138-342 183-169 60-346 109-490 215-123 113-180 289-339 363-293 95-607 56-910 67-2 0-4-1-6-1l-171-1009c37 3 73 6 110 12 78 14 138-60 215-64 49-14 102-4 145-32 39-102 78-208 138-300 64-95 53-215 39-325z"/>
   <path class="fil6" d="m12532 15148c103 35 208 68 290 144 60 60 148 56 226 60 64 0 113 49 173 67 74 7 148-21 226-14 67 21 123 67 180 102 85 49 71 180 155 229 67 46 138 88 205 131-138 152-176 360-261 540-67 78-141 145-208 222-109-88-233-169-374-198-109 4-233 78-328-7-95-42-109-152-145-240-74-25-152-56-215-102-99-74-226-71-339-106 64-123 102-254 173-370-23-13-47-23-71-32l314-426z"/>
  </g>
  <g fill="#d7b56d">
   <path class="fil7" d="m1872 13475c159-127 325-258 434-434 53 81 88 191 187 226 201 71 377 212 494 392 49 64 123 92 187 134 342 198 564 550 910 741 138 88 240 226 402 279-42 88-64 183-88 279-35-56-67-116-102-173-113-18-229-28-346-21 32 205-35 434-229 536-155 67-293 169-423 279-162 166-198 423-95 628-49 7-99 14-148 21 4-81 11-162 21-247-71-64-131-138-169-229-67-148-261-131-395-120-11 56-21 113-32 169-60 0-120 0-183 4-14-113 21-226-18-335-88-194-339-282-381-501 11-131 28-282-64-395-236-95-490-134-734-219-7-21-21-64-28-81 78-113 123-250 243-321 236-155 370-409 557-610z"/>
   <path class="fil7" d="m8144 14103c60-35 92-99 131-155 268 7 473 201 681 342 155 46 265-95 409-113 88 25 155 99 250 113 138 25 247 123 385 148 120 28 258 92 282 222 35 138 141 243 194 377-53 35-113 64-141 123-56 109-138 201-183 314-28 74-102 113-155 166-95 109-187 222-254 349-102-4-201-28-282-92-78-64-180-64-275-78-99 123-258 145-395 198-141 74-123 258-145 388-102-46-127-152-162-247-67-28-152-56-226-32-127 56-268 0-395 74-56-120-152-215-212-328-18-134 106-240 85-374 25-152-152-236-148-385 35-74 85-141 127-212-64-71-120-145-173-222 71-64 141-131 201-205 81-95 95-229 176-321 74-28 152-35 226-53z"/>
   <path class="fil7" d="m4006 14950c92 4 176 18 265 32 21 42 42 85 60 131 173 18 303 138 459 201 81 28 141 95 187 166 49 78 162 64 229 127 159 215 406 342 603 522 35 60 28 152 99 183 141 78 279 194 452 169-4 56-7 109-14 166 78 32 152 67 229 102-14 138-25 275-21 409-166-85-335 21-508-18-49 49-85 113-145 145-134-11-268-60-402-46-166 88-247 265-342 420-173-56-296-198-448-282-201-99-342-275-512-413-92-109-243-106-367-159-205-106-374-268-582-367 28-152-74-286-42-434 49-247 282-388 494-494 212-92 367-325 307-561z"/>
   <path class="fil7" d="m10402 15165c39-53 109-64 162-95 106 113 240 198 395 219 49 123 155 236 134 381-123 49-254 78-388 56-56 88 25 159 56 236-4 95-35 194 7 286 39 60 99 106 148 159-85 42-176 7-261-11-74 109-88 247-169 356 7 116 0 229-78 328 99 78 194 173 247 286-18 99-131 53-201 71-131-18-215 123-349 113-159 7-332-11-459 109-60-106-116-212-173-321 25-56 49-116 67-180-71-11-145-14-215-32-49-56-85-120-131-180 28-60 53-127 64-191-194-53-413-102-536-275-14-123-35-268 56-367 81-106 229-81 342-116 32-35 56-74 88-109 88 0 176 25 247 81 99 74 219 78 335 78 88-187 229-342 381-476 74-138 159-272 229-406z"/>
   <path class="fil7" d="m6204 15511c92-25 169 49 243 92 201-106 416 64 628 11 99-28 138 88 201 141 109 81 219 159 339 226 99 56 134 173 205 258 88 60 194 7 289 4 106-7 219-99 321-32 32 56 46 123 88 176 180 187 388 367 653 413-14 64-32 127-42 187 81 102 166 215 303 233-81 205 155 342 169 533 0 145-198 127-243 243-21 46-25 106 28 131 81 92 219 49 314 120-53 42-92 109-155 131-145-78-321-166-476-60 11 81 25 166 35 250-88 0-180-25-268 7-215 64-441 113-667 116-106 7-205 71-310 46-166-53-275-198-377-328-148-127-342-191-483-328-201-180-406-399-691-427-141-74-222-229-318-353 25-32 46-64 67-95 109 21 215 14 318-25 85 18 169 56 261 32-28-159-14-314 11-469-71-53-152-88-208-152-11-49-18-102-25-152-176-18-335-92-480-191-46-78-88-162-113-250 11-215 155-452 385-487z"/>
   <path class="fil7" d="m11457 15638c243-28 487-21 727-39-28 123-67 250-141 353 7 21 25 64 35 85 198 14 363 109 533 205 46 71 64 162 138 212 102 109 261 46 392 46 102 14 191 78 279 131-4 78-25 162 0 240 46 95 134 159 208 233-159 176-416 138-624 102-81 116-176 233-321 272-71-60-138-148-240-127-123-18-169 208-293 131-25-74-25-155-49-229-74-92-176-159-247-250-56-131-106-296-243-356-155-7-300 102-459 67-166-53-349-95-469-233 74 0 152 4 226 4 28-28 53-56 81-85-60-81-138-145-191-229-7-81 42-155 39-236-21-42-46-85-71-127 148 18 275-64 409-113 95-4 194-18 282-53z"/>
   <path class="fil7" d="m10557 16774c25-71 71-134 109-198 162 99 346 166 533 208 131-4 254-60 381-81 113 60 159 191 205 300 49 152 261 191 268 360 25 155 109 300 81 459-11 95-71 176-106 265 7 88 32 176 21 268-127-78-296-166-441-85-42 21-81 42-120 60-85-109-180-219-321-258-155-88-335-120-512-85-49 46-88 102-134 152-307-18-624 99-924-7-74-18-145-39-205-81 60-49 127-95 191-145 78-78 120-187 198-265 173-74 385 32 536-99 109-85 258-25 385-74-4-53 0-106-7-159-39-92-120-155-159-247 0-95 18-194 21-289z"/>
   <path class="fil7" d="m12451 17423c85-53 127 85 205 95 102 7 201 18 303 39 205 35 413-60 617-21 113 14 166 127 243 198 81 4 145-67 212-109 78 56 166 106 268 109 155 0 254 138 395 176 95 11 187-35 282-53 116 25 226 81 349 85 106 4 208 35 307 71-4 99 21 208-39 296-60 85-99 180-131 279-109-4-208 35-307 67-226 0-455 11-677-25-180 4-268 194-427 254-123 85-194-102-254-180-134 21-265 85-399 53-141-49-286-113-437-99-183 18-342-95-522-95-120-42-219-134-339-176 7-99 0-201 4-300 67-159 116-328 92-497 95-42 166-113 254-166z"/>
   <path class="fil7" d="m10705 18040c208-7 406 53 582 159 56 49 85 123 141 173 49 11 102 14 155 18 53 166 116 335 88 512-21 109 11 219 11 332-35 120-109 229-116 360 25 88 113 166 78 265-56 138-46 289-53 434-64-60-120-123-187-176-222-28-445 0-667-4-123 18-240-42-349-92-56-56-85-131-134-187-109-46-233 0-346-11-187-21-377 0-568-28-7-162-7-328 42-487-71-162-134-328-191-497-11-155-21-310-67-462 152-64 289 35 420 95 81-14 131-88 194-134 71-11 141 18 212 4 85-35 162-109 261-106 113-4 226 0 339 0 49-56 102-113 155-166z"/>
   <path class="fil7" d="m11661 18291c198 4 349 134 526 208 99 42 169 152 282 148 173-14 328 95 501 74 201-25 370 123 568 116 74-11 141-46 208-71 53 71 109 138 166 205-106 46-215 71-318 123-60 88-148 187-120 303 39 233 14 469 53 706-342-4-677-92-1023-64-35 85-95 162-109 254 18 64 53 120 85 176-92 102-180 205-268 307-113-28-247 28-342-53-39-60-32-134-53-198-42-64-106-109-152-169-35-166-11-339 42-501 35-99-42-183-74-272 11-120 81-229 109-346 4-106-42-212-11-318 46-215-81-416-71-631z"/>
   <path class="fil7" d="m15170 19725c-54 22-84 93-76 154 60 64 148 39 226 42-120 99-88 275-208 377-88-7-180-25-265 14-49 74-64 187-14 265 49 42 106 74 162 109-53 53-99 148-187 131-56-25-99-67-145-102-169-141-385-198-564-314-166-106-349-173-512-279-35-268-28-536-53-801 39-85 85-187 180-208 166-46 307-145 455-222 109-64 191-212 332-198 168 16 336 5 502 14l167 1018z"/>
   <path class="fil7" d="m10546 13666c28-99 152-85 233-106 148 11 296 39 441-7-60 272 131 501 138 762 169 42 346 56 508-14 88 81 191 145 293 201-39 74-134 148-92 240 56 106-7 222 4 335 81 123 243-14 356 32 16 7 33 13 49 19l-302 433c-223-59-472 26-700-4-71-18-116 53-173 81-42-14-85-28-127-42-49-120-116-236-169-360-205-11-339-169-494-282-60-116-145-222-183-346-32-88-113-138-169-208 60-7 120-18 180-25-39-71-88-134-145-191 35-7 74-14 109-21 11-78 21-159 39-236 95 46 194 85 296 116 39-67 64-145 74-222-60-46-145-74-166-155z"/>
   <path class="fil7" d="m9655 12471c80-21 159-49 239-61 81 11 155 71 240 42 127-32 275-56 395 14 180 141 409 198 628 247 32 60 60 123 88 183 56 4 113 11 169 14 4 74 11 148 7 226 11 81-71 127-106 191-14 53-21 113-28 169-236 42-480-35-709 42-67 21-85 95-74 155 0 88 95 127 152 180-11 25-39 74-53 95-95-39-194-88-296-113-25 78-42 162-53 243-60 4-123 7-183 18 42 71 88 141 138 208-78 21-155 95-236 53-109-49-205-123-325-141-81-13-146-77-221-106l229-1660z"/>
  </g>
  <g fill="#f5b5d2">
   <path class="fil8" d="m4443 3157c120 53 254 67 360 145 88 49 155 134 247 176 169 28 346 53 508 99 109 106 258 138 402 162 67 56 127 116 191 176 81-46 159-134 261-95 92 35 148-64 212-109 74 67 145 152 148 258-18 145-71 286-134 416 134 109 236 247 377 346 28 56 60 113 71 173-88 138-138 300-148 462 127 39 258 11 385-7 113-7 176 102 243 176 67-4 131-4 198-7 39 78 81 152 116 229 39-35 74-67 113-99 109 106 233 198 367 265 78 35 116 116 162 183-78 81-155 162-233 240 49 169-127 268-131 427-49 25-99 49-148 74 7 134-25 272 18 402 25 74-35 138-60 205-88-42-169-88-265-113-95 11-183 64-282 81-78 0-152-14-229-21-28 71-49 141-71 212-145 21-293 35-437 64-56-14-85-67-99-120-46-152-145-282-215-423-21-67-102-60-155-46-71 74-123 162-201 229-148 138-349 201-550 219-56 85-99 191-194 243-116 0-236-60-349-4-116 56-250-14-318-116-49-180 25-363 102-526 81-166 92-356 176-522 60-42 141-42 194-95 71-113 49-247 42-374-106-18-212-28-310-56-78-42-116-127-169-191-289-35-575 53-864 67-39 81-67 226-191 201-74 7-88-74-106-127-56-138 116-254 56-392-18-138-152-208-275-222-95-7-198 49-282-4-99-60-201-113-310-148 21-109 39-219 53-328 18-102-56-183-92-268 95-42 191-7 279 35 113-116 240-219 374-307 4-127 21-254 92-360 95-169 7-349-21-522 53-35 159-35 145-120-39-49-85-92-127-134 18-21 53-56 67-78 141 39 219 155 310 254 109 32 222 56 335 85 7-102 21-208 53-307 60 25 116 60 183 71 74 7 88-88 127-134z"/>
   <path class="fil8" d="m8373 6377c99-155 219-310 388-399 99 208 201 434 413 554-39 71-71 141-106 212 120 4 240 0 353-39 102-39 155 88 212 152-71 42-145 78-201 138-28 49-21 109-32 166 99-4 198-11 296-14 39 99 71 219 187 250 116 35 159 166 180 275 21 123-120 180-187 261 28 113 56 222 85 335-64 78-116 166-180 243-81 35-169 46-250 67-11 127 7 272-74 381-85 120-226 173-353 229-32-64-25-159-99-187-81 7-159 35-240 46-71-11-141-25-212-35-32-134-56-268-81-402-159 14-261 145-363 250-60-78-99-169-145-254-14-53-74-39-113-46-123-7-240-67-367-67-35 120-64 243-81 367-134 25-279 42-388 138-74 74-176 4-250-39-78-49-60-155-78-236-106-7-205-42-286-106-85 39-173 123-272 71-64-14-131-88-198-42-71 56-109 145-166 219-138-18-268-81-402-120-106-21-212 0-318 18 35-141-49-261-85-392 18-116 64-229 71-349-14-78-46-152-74-226 120 11 243 67 360 28 88-56 120-162 198-229 102-28 208-39 310-74 187-92 310-265 462-399 85 166 198 314 250 490 14 78 85 113 152 134 166-46 335-49 501-88 11-64 18-127 28-191 95 4 194 35 282-4 67-21 131-60 198-64 99 28 191 85 286 123 42-78 113-152 102-243-11-131-4-258-14-385 53-28 109-56 162-85 0-159 120-279 138-434z"/>
   <path class="fil8" d="m10134 7616c159-14 310-88 473-74 18 67-7 159 49 208 113 35 236 0 353 18 141 116 254 261 392 381 74-78 176-166 289-109 32 56 53 113 78 169 60-25 120-53 180-81 71 71 145 138 229 187-74 134 18 268 78 388 102-4 201-4 300 4 11 152 74 286 141 420 85 18 162 49 233 99-14 78-28 155-46 233 46 53 102 99 134 166 14 85-7 176 21 258 74 116 233 148 293 279 42 85 42 198 127 254 42 35 102 25 152 32 46 162 233 145 342 236 39-14 74-32 113-46 32 56 64 113 95 169-99 56-194 123-300 166 7 173-39 339-39 508 4 116-116 176-166 268-81 148-226 243-332 370-56 64-64 148-95 222-42 46-92 85-141 127 0 92 46 208-21 286-127 46-272 46-402 88-88 42-155 141-265 127-116 0-233 21-349 28-148-46-307-53-448-116-102-39-212-32-314-35-32-64-49-141-106-187-162-42-328-81-480-155-85-42-152-116-247-134-152-53-310 56-466 0-116-39-229 14-342 39-85-99-191-176-310-219 18-60 39-120 60-180-56-85-120-166-155-261-35-88-60-194-145-243-85-14-173 7-254-21-67-42-109-109-169-159-131-28-261-85-399-71-60 32-106 81-155 127-81-25-159-53-236-92 11-106 49-208 46-317-11-106 49-198 78-293 25-71 74-141 148-166 187-14 385-7 564-67 56-18 74-78 102-123-81-71-169-134-219-233 46-155 116-310 268-388 0-208-205-363-155-572 92-21 183-49 272-78 21 64 39 123 60 187 155 4 289-85 406-180 123-106 123-282 134-434 85-14 166-35 250-56 49-99 113-194 191-275-25-113-53-226-78-342 56-49 123-99 169-166 25-53 11-113 14-169z"/>
   <path class="fil8" d="m7541 8544c120 42 240 106 370 85 64 95 92 300 240 268 92-78 169-173 275-236 4 138 28 272 81 399 46 14 95 32 148 46-4 60-11 120-11 180 60 120 123 240 176 363-166 88-222 265-293 423 56 106 123 201 201 293-173 81-367 74-554 78-145 32-205 201-342 247-205 0-406-53-610-81-113 134-286 183-420 289-138 53-212 183-314 282-64 53-32 141-39 212-95 7-194 11-289 7-46-95-92-191-138-286-25-127 21-265-25-392-88-64-201-99-282-180-85-120-166-243-226-377-53-145-226-183-293-318 67-32 138-56 212-74 42-134 127-240 240-321 39-166-4-342 39-512 123-35 205-138 268-243 138 74 307 88 441 0 67 53 145 92 233 88-4 169 134 300 300 307 92 14 148-74 226-106 102-35 208-53 307-81 4-123 32-243 78-360z"/>
   <path class="fil8" d="m5029 8829c92-14 180-49 275-42 106 28 208 71 310 109-21 173 7 349-21 522-116 71-198 173-229 307-71 18-145 35-215 60 11 49 18 106 39 155 53 88 180 109 219 208 60 145 148 272 233 399 85 102 212 155 325 219-4 92 11 191-18 282-74 81-152 162-236 233-74 74-183 42-272 42-109-7-212 46-310 85-95-92-180-198-296-265-173-18-399-46-448-250-109 25-219 39-332 46-109 14-205-60-303-102 0-152 141-254 138-409-81 0-176 32-240-35-74-81-236-92-247-222-21-109 32-212 46-314 0-88-56-187 14-261 152-215 388-385 653-430 28 95 60 191 99 282 152-4 303-25 455-46 162-155 300-353 363-572z"/>
   <path class="fil8" d="m3420 10681c148-39 282-116 413-198-85 120-187 272-106 413 102 67 226 141 353 106 85-11 169-21 250-35 81 176 296 219 473 233 116 60 194 180 293 261 116-28 233-67 349-88 39 106 39 222 18 332-46 92-123 162-169 250-32 95-46 198-42 300-4 95 67 169 113 250-56 67-106 138-166 201-78 39-176 14-243 78-64 39-67 120-92 187-28 127-120 226-183 335-194-95-367-240-586-268-99-81-201-148-314-208-127-64-67-222-56-328 25-74-39-127-67-183-106-155-116-356-247-494-116-123-194-275-310-395-109-120-162-310-49-448 99-123 208-265 370-300z"/>
   <path class="fil8" d="m6835 10957c131-113 303-159 430-275 215 25 430 88 649 56-21 71-53 138-46 212 7 123-35 240-49 363 102 56 208 131 332 123 78-46 141-155 247-120 106 32 229 39 314 120-95 21-194 39-254 120-113 123-109 303-145 455-173 49-310 166-473 240-116 53-205 152-261 268-113 14-272-39-339 81-60 123-25 265-53 399-67-4-148-42-208 11-81 64-215 99-229 222-18 102-60 194-127 275-106-49-215-95-335-71-123 28-131-131-173-208-138 25-279 35-420 56-155 32-310-14-462-42-49-53-60-131-85-198-28-88-95-159-148-233 71-14 148-21 219-46 85-74 141-173 212-261-46-81-106-159-131-254 0-92 21-183 46-268 46-95 127-159 183-243 18-95 4-194 14-293 28-42 85-49 123-74 106-49 180-138 254-222 32 25 67 49 95 78 39 67 28 176 120 205 120 46 261 28 377-25 4-53 4-109 11-162 88-109 169-243 310-289z"/>
   <path class="fil8" d="m873 11376c148-88 325-127 497-88 173 120 300 321 519 367 162 25 335 18 490-49 88 74 169 173 286 208 78-21 141-78 215-113 102 14 247 53 261 176 25 141 106 265 194 374 85 106 74 247 85 374 71 11 145 21 215 28 11 60 11 123 35 180 60 64 145 92 222 134 67 35 109 109 187 131 233 32 409 201 621 289 116-148 215-310 258-501 123 99 162 254 205 399 120 28 243 49 363 85 131-7 261-49 395-46-71 92-191 152-194 279-42 123 67 215 99 325 46 116-21 236-49 349-92 21-205 64-226 169-7 134-28 268-11 402-106 42-201 183-325 116-102-32-85-176-176-222-116-42-236-92-363-95-81-4-120 120-205 95-145-32-215-180-339-247-258-138-434-374-656-547-162-162-388-247-526-434-131-145-296-250-476-328-67-88-127-180-201-258-92-205-95-437-226-624-4-162-46-321-131-462h-106c-4 78-7 155-11 233-53-35-106-67-159-102 4-46 11-92 18-138-32-18-64-39-95-53-64 14-109 71-162 109-99-92-226-148-303-265-67-88-152-166-226-250z"/>
   <path class="fil8" d="m5812 13542c85-88 166-176 240-275 49 74 64 176 141 229 116 7 233-11 342 35 74 39 148-4 215-35 187 198 480 162 723 226 85 56 159 134 191 236 32 85 113 134 180 198-42 85-78 176-127 261-71 92-159 162-247 233 49 95 95 191 155 282-39 64-99 131-92 212 11 145 141 247 152 388-32 123-95 240-109 367-67-60-138-113-215-155-78-42-106-131-176-180-99-39-205 14-307-18-176-49-367-25-543-85-123-53-250 25-360 71-116 134-198 289-219 466-176-138-360-268-508-437-116-67-229-141-325-240-148-95-310-166-459-261-4-152 145-233 205-360 109 32 219 53 328 92 81 74 95 219 219 233 155 53 272-88 406-138-11-145-4-289-11-430 46-78 141-99 215-134 32-113 81-219 71-339 11-159-191-282-85-441z"/>
   <path class="fil8" d="m8599 11521c169-14 332 46 497 49 81 145 102 318 229 437-28 60-53 116-78 176 117 87 257 142 347 262l-223 1671c-13-1-26-2-39 0-102 25-187 95-289 127-71 14-120-53-173-88-120-109-279-162-406-261-81-11-162-4-243-7-32 56-67 116-102 173-131 11-321 46-392-102-49-145-155-303-325-310-222-32-480-39-635-226 18-81 28-162 64-240 109-127 300-92 430-183 14-138-42-303 67-413 88-11 180 0 268-11 71-60 95-162 180-215 116-78 243-131 360-205 85-53 229-64 243-187 21-166 56-360 219-448z"/>
  </g>
 </g>
 <g fill="#2b2a29" transform="translate(5240,-472)">
  <path d="m31096 16880v-606.06h196.37q111.62 0 145.52 9.096 52.09 13.642 87.23 59.531 35.14 45.475 35.14 117.82 0 55.81-20.257 93.844t-51.676 59.945q-31.006 21.498-63.253 28.526-43.821 8.682-126.92 8.682h-79.789v228.62h-122.37zm122.37-503.54v171.98h66.973q72.347 0 96.738-9.509 24.392-9.508 38.034-29.766 14.056-20.257 14.056-47.129 0-33.073-19.43-54.57-19.43-21.498-49.196-26.872-21.911-4.134-88.057-4.134h-59.118z"/><path d="m31772 16880h-116.17v-439.04h107.9v62.426q27.698-44.236 49.609-58.292 22.325-14.056 50.437-14.056 39.687 0 76.481 21.911l-35.967 101.29q-29.352-19.017-54.57-19.017-24.392 0-41.342 13.643-16.95 13.229-26.872 48.369-9.508 35.141-9.508 147.18v135.6z"/><path d="m31963 16654q0-57.877 28.525-112.03 28.526-54.158 80.616-82.683 52.503-28.526 117-28.526 99.632 0 163.3 64.906 63.665 64.493 63.665 163.3 0 99.633-64.492 165.37-64.079 65.319-161.64 65.319-60.359 0-115.34-27.285-54.57-27.286-83.096-79.789-28.525-52.917-28.525-128.57zm119.06 6.202q0 65.319 31.006 100.05 31.006 34.726 76.481 34.726 45.476 0 76.068-34.726 31.006-34.727 31.006-100.87 0-64.493-31.006-99.219-30.592-34.727-76.068-34.727-45.475 0-76.481 34.727-31.006 34.726-31.006 100.05z"/><path d="m32628 16880-176.94-439.04h121.96l82.682 224.07 23.978 74.828q9.509-28.526 11.989-37.621 5.788-18.603 12.402-37.207l83.51-224.07h119.48l-174.46 439.04h-104.59z"/><path d="m32980 16381v-107.49h116.17v107.49h-116.17zm0 498.58v-439.04h116.17v439.04h-116.17z"/><path d="m33614 16880h-116.17v-224.07q0-71.107-7.442-91.778-7.441-21.084-24.391-32.659-16.536-11.576-40.101-11.576-30.179 0-54.157 16.537-23.978 16.536-33.073 43.822-8.682 27.285-8.682 100.87v198.85h-116.17v-439.04h107.9v64.493q57.464-74.415 144.69-74.415 38.448 0 70.281 14.056 31.832 13.643 47.956 35.141 16.536 21.497 22.737 48.782 6.615 27.286 6.615 78.135v272.85z"/><path d="m34115 16571-114.52 20.671q-5.788-34.314-26.458-51.677-20.257-17.363-52.917-17.363-43.408 0-69.453 30.179-25.632 29.766-25.632 100.05 0 78.135 26.045 110.38 26.458 32.246 70.694 32.246 33.073 0 54.157-18.603 21.084-19.017 29.765-64.906l114.1 19.43q-17.776 78.549-68.213 118.65-50.436 40.101-135.19 40.101-96.325 0-153.79-60.772-57.051-60.772-57.051-168.26 0-108.73 57.464-169.09 57.464-60.772 155.44-60.772 80.202 0 127.33 34.727 47.542 34.313 68.213 105.01z"/><path d="m34458 16740 115.76 19.431q-22.324 63.665-70.694 97.152-47.956 33.073-120.3 33.073-114.52 0-169.5-74.828-43.409-59.945-43.409-151.31 0-109.14 57.051-170.74 57.051-62.012 144.28-62.012 97.979 0 154.62 64.906 56.638 64.493 54.157 198.02h-291.04q1.241 51.677 28.112 80.616 26.872 28.525 66.973 28.525 27.286 0 45.889-14.883 18.604-14.883 28.112-47.956zm6.615-117.41q-1.24-50.436-26.045-76.481-24.805-26.459-60.359-26.459-38.034 0-62.838 27.699-24.805 27.699-24.392 75.241h173.63z"/><path d="m34912 16880v-606.06h119.06l248.05 404.73v-404.73h113.69v606.06h-122.78l-244.33-395.22v395.22h-113.69z"/><path d="m35495 16654q0-57.877 28.526-112.03 28.525-54.158 80.615-82.683 52.504-28.526 117-28.526 99.633 0 163.3 64.906 63.666 64.493 63.666 163.3 0 99.633-64.493 165.37-64.079 65.319-161.64 65.319-60.359 0-115.34-27.285-54.571-27.286-83.096-79.789-28.526-52.917-28.526-128.57zm119.06 6.202q0 65.319 31.006 100.05 31.006 34.726 76.481 34.726 45.476 0 76.068-34.726 31.006-34.727 31.006-100.87 0-64.493-31.006-99.219-30.592-34.727-76.068-34.727-45.475 0-76.481 34.727-31.006 34.726-31.006 100.05z"/><path d="m36039 16880v-116.17h116.17v116.17h-116.17z"/><path d="m36781 16880h-116.17v-437.8q-63.665 59.531-150.07 88.057v-105.42q45.475-14.883 98.805-56.224 53.331-41.755 73.174-97.152h94.259v608.54z"/>
  <path d="m17744 25618v-606.06h196.37q111.62 0 145.52 9.096 52.09 13.642 87.23 59.531 35.14 45.475 35.14 117.82 0 55.81-20.257 93.844t-51.676 59.945q-31.006 21.498-63.253 28.526-43.821 8.682-126.92 8.682h-79.789v228.62h-122.37zm122.37-503.54v171.98h66.973q72.347 0 96.738-9.509 24.392-9.508 38.034-29.766 14.056-20.257 14.056-47.129 0-33.073-19.43-54.57-19.43-21.498-49.196-26.872-21.911-4.134-88.057-4.134h-59.118z"/><path d="m18420 25618h-116.17v-439.04h107.9v62.426q27.698-44.236 49.609-58.292 22.325-14.056 50.437-14.056 39.687 0 76.481 21.911l-35.967 101.29q-29.352-19.017-54.57-19.017-24.392 0-41.342 13.643-16.95 13.229-26.872 48.369-9.508 35.141-9.508 147.18v135.6z"/><path d="m18611 25392q0-57.877 28.525-112.03 28.526-54.158 80.616-82.683 52.503-28.526 117-28.526 99.632 0 163.3 64.906 63.665 64.493 63.665 163.3 0 99.633-64.492 165.37-64.079 65.319-161.64 65.319-60.359 0-115.34-27.285-54.57-27.286-83.096-79.789-28.525-52.917-28.525-128.57zm119.06 6.202q0 65.319 31.006 100.05 31.006 34.726 76.481 34.726 45.476 0 76.068-34.726 31.006-34.727 31.006-100.87 0-64.493-31.006-99.219-30.592-34.727-76.068-34.727-45.475 0-76.481 34.727-31.006 34.726-31.006 100.05z"/><path d="m19276 25618-176.94-439.04h121.96l82.682 224.07 23.978 74.828q9.509-28.526 11.989-37.621 5.788-18.603 12.402-37.207l83.51-224.07h119.48l-174.46 439.04h-104.59z"/><path d="m19628 25119v-107.49h116.17v107.49h-116.17zm0 498.58v-439.04h116.17v439.04h-116.17z"/><path d="m20262 25618h-116.17v-224.07q0-71.107-7.442-91.778-7.441-21.084-24.391-32.659-16.536-11.576-40.101-11.576-30.179 0-54.157 16.537-23.978 16.536-33.073 43.822-8.682 27.285-8.682 100.87v198.85h-116.17v-439.04h107.9v64.493q57.464-74.415 144.69-74.415 38.448 0 70.281 14.056 31.832 13.643 47.956 35.141 16.536 21.497 22.737 48.782 6.615 27.286 6.615 78.135v272.85z"/><path d="m20763 25309-114.52 20.671q-5.788-34.314-26.458-51.677-20.257-17.363-52.917-17.363-43.408 0-69.453 30.179-25.632 29.766-25.632 100.05 0 78.135 26.045 110.38 26.458 32.246 70.694 32.246 33.073 0 54.157-18.603 21.084-19.017 29.765-64.906l114.1 19.43q-17.776 78.549-68.213 118.65-50.436 40.101-135.19 40.101-96.325 0-153.79-60.772-57.051-60.772-57.051-168.26 0-108.73 57.464-169.09 57.464-60.772 155.44-60.772 80.202 0 127.33 34.727 47.542 34.313 68.213 105.01z"/><path d="m21106 25478 115.76 19.431q-22.324 63.665-70.694 97.152-47.956 33.073-120.3 33.073-114.52 0-169.5-74.828-43.409-59.945-43.409-151.31 0-109.14 57.051-170.74 57.051-62.012 144.28-62.012 97.979 0 154.62 64.906 56.638 64.493 54.157 198.02h-291.04q1.241 51.677 28.112 80.616 26.872 28.525 66.973 28.525 27.286 0 45.889-14.883 18.604-14.883 28.112-47.956zm6.615-117.41q-1.24-50.436-26.045-76.481-24.805-26.459-60.359-26.459-38.034 0-62.838 27.699-24.805 27.699-24.392 75.241h173.63z"/><path d="m21560 25618v-606.06h119.06l248.05 404.73v-404.73h113.69v606.06h-122.78l-244.33-395.22v395.22h-113.69z"/><path d="m22143 25392q0-57.877 28.526-112.03 28.525-54.158 80.615-82.683 52.504-28.526 117-28.526 99.633 0 163.3 64.906 63.666 64.493 63.666 163.3 0 99.633-64.493 165.37-64.079 65.319-161.64 65.319-60.359 0-115.34-27.285-54.571-27.286-83.096-79.789-28.526-52.917-28.526-128.57zm119.06 6.202q0 65.319 31.006 100.05 31.006 34.726 76.481 34.726 45.476 0 76.068-34.726 31.006-34.727 31.006-100.87 0-64.493-31.006-99.219-30.592-34.727-76.068-34.727-45.475 0-76.481 34.727-31.006 34.726-31.006 100.05z"/><path d="m22687 25618v-116.17h116.17v116.17h-116.17z"/><path d="m23524 25510v107.9h-407.21q6.614-61.185 39.687-115.76 33.073-54.984 130.64-145.52 78.548-73.174 96.325-99.219 23.978-35.967 23.978-71.107 0-38.861-21.084-59.532-20.671-21.084-57.464-21.084-36.381 0-57.878 21.911-21.498 21.911-24.805 72.761l-115.76-11.576q10.336-95.912 64.906-137.67 54.571-41.755 136.43-41.755 89.711 0 140.97 48.369 51.264 48.37 51.264 120.3 0 40.928-14.883 78.136-14.47 36.793-46.303 77.308-21.084 26.872-76.068 77.308t-69.866 66.973q-14.47 16.536-23.565 32.246h230.68z"/>
  <path d="m22800 14818v-606.06h196.37q111.62 0 145.52 9.096 52.09 13.642 87.23 59.531 35.14 45.475 35.14 117.82 0 55.81-20.257 93.844t-51.676 59.945q-31.006 21.498-63.253 28.526-43.821 8.682-126.92 8.682h-79.789v228.62h-122.37zm122.37-503.54v171.98h66.973q72.347 0 96.738-9.509 24.392-9.508 38.034-29.766 14.056-20.257 14.056-47.129 0-33.073-19.43-54.57-19.43-21.498-49.196-26.872-21.911-4.134-88.057-4.134h-59.118z"/><path d="m23476 14818h-116.17v-439.04h107.9v62.426q27.698-44.236 49.609-58.292 22.325-14.056 50.437-14.056 39.687 0 76.481 21.911l-35.967 101.29q-29.352-19.017-54.57-19.017-24.392 0-41.342 13.643-16.95 13.229-26.872 48.369-9.508 35.141-9.508 147.18v135.6z"/><path d="m23667 14592q0-57.877 28.525-112.03 28.526-54.158 80.616-82.683 52.503-28.526 117-28.526 99.632 0 163.3 64.906 63.665 64.493 63.665 163.3 0 99.633-64.492 165.37-64.079 65.319-161.64 65.319-60.359 0-115.34-27.285-54.57-27.286-83.096-79.789-28.525-52.917-28.525-128.57zm119.06 6.202q0 65.319 31.006 100.05 31.006 34.726 76.481 34.726 45.476 0 76.068-34.726 31.006-34.727 31.006-100.87 0-64.493-31.006-99.219-30.592-34.727-76.068-34.727-45.475 0-76.481 34.727-31.006 34.726-31.006 100.05z"/><path d="m24332 14818-176.94-439.04h121.96l82.682 224.07 23.978 74.828q9.509-28.526 11.989-37.621 5.788-18.603 12.402-37.207l83.51-224.07h119.48l-174.46 439.04h-104.59z"/><path d="m24684 14319v-107.49h116.17v107.49h-116.17zm0 498.58v-439.04h116.17v439.04h-116.17z"/><path d="m25318 14818h-116.17v-224.07q0-71.107-7.442-91.778-7.441-21.084-24.391-32.659-16.536-11.576-40.101-11.576-30.179 0-54.157 16.537-23.978 16.536-33.073 43.822-8.682 27.285-8.682 100.87v198.85h-116.17v-439.04h107.9v64.493q57.464-74.415 144.69-74.415 38.448 0 70.281 14.056 31.832 13.643 47.956 35.141 16.536 21.497 22.737 48.782 6.615 27.286 6.615 78.135v272.85z"/><path d="m25819 14509-114.52 20.671q-5.788-34.314-26.458-51.677-20.257-17.363-52.917-17.363-43.408 0-69.453 30.179-25.632 29.766-25.632 100.05 0 78.135 26.045 110.38 26.458 32.246 70.694 32.246 33.073 0 54.157-18.603 21.084-19.017 29.765-64.906l114.1 19.43q-17.776 78.549-68.213 118.65-50.436 40.101-135.19 40.101-96.325 0-153.79-60.772-57.051-60.772-57.051-168.26 0-108.73 57.464-169.09 57.464-60.772 155.44-60.772 80.202 0 127.33 34.727 47.542 34.313 68.213 105.01z"/><path d="m26162 14678 115.76 19.431q-22.324 63.665-70.694 97.152-47.956 33.073-120.3 33.073-114.52 0-169.5-74.828-43.409-59.945-43.409-151.31 0-109.14 57.051-170.74 57.051-62.012 144.28-62.012 97.979 0 154.62 64.906 56.638 64.493 54.157 198.02h-291.04q1.241 51.677 28.112 80.616 26.872 28.525 66.973 28.525 27.286 0 45.889-14.883 18.604-14.883 28.112-47.956zm6.615-117.41q-1.24-50.436-26.045-76.481-24.805-26.459-60.359-26.459-38.034 0-62.838 27.699-24.805 27.699-24.392 75.241h173.63z"/><path d="m26616 14818v-606.06h119.06l248.05 404.73v-404.73h113.69v606.06h-122.78l-244.33-395.22v395.22h-113.69z"/><path d="m27199 14592q0-57.877 28.526-112.03 28.525-54.158 80.615-82.683 52.504-28.526 117-28.526 99.633 0 163.3 64.906 63.666 64.493 63.666 163.3 0 99.633-64.493 165.37-64.079 65.319-161.64 65.319-60.359 0-115.34-27.285-54.571-27.286-83.096-79.789-28.526-52.917-28.526-128.57zm119.06 6.202q0 65.319 31.006 100.05 31.006 34.726 76.481 34.726 45.476 0 76.068-34.726 31.006-34.727 31.006-100.87 0-64.493-31.006-99.219-30.592-34.727-76.068-34.727-45.475 0-76.481 34.727-31.006 34.726-31.006 100.05z"/><path d="m27743 14818v-116.17h116.17v116.17h-116.17z"/><path d="m28184 14657 112.45-13.642q5.374 42.995 28.939 65.732 23.564 22.738 57.051 22.738 35.967 0 60.358-27.285 24.805-27.285 24.805-73.588 0-43.821-23.565-69.453-23.564-25.632-57.464-25.632-22.324 0-53.33 8.682l12.815-94.672q47.129 1.241 71.934-20.257 24.805-21.911 24.805-57.878 0-30.592-18.19-48.782-18.19-18.191-48.369-18.191-29.766 0-50.85 20.671t-25.632 60.358l-107.07-18.19q11.162-54.984 33.487-87.643 22.737-33.073 62.838-51.677 40.515-19.017 90.538-19.017 85.576 0 137.25 54.57 42.581 44.649 42.581 100.87 0 79.789-87.23 127.33 52.09 11.163 83.096 50.023 31.42 38.861 31.42 93.845 0 79.789-58.291 136.01-58.292 56.224-145.11 56.224-82.27 0-136.43-47.129-54.157-47.542-62.839-124.02z"/>
  <path d="m17694 11726v-606.06h196.37q111.62 0 145.52 9.096 52.09 13.642 87.23 59.531 35.14 45.475 35.14 117.82 0 55.81-20.257 93.844t-51.676 59.945q-31.006 21.498-63.253 28.526-43.821 8.682-126.92 8.682h-79.789v228.62h-122.37zm122.37-503.54v171.98h66.973q72.347 0 96.738-9.509 24.392-9.508 38.034-29.766 14.056-20.257 14.056-47.129 0-33.073-19.43-54.57-19.43-21.498-49.196-26.872-21.911-4.134-88.057-4.134h-59.118z"/><path d="m18370 11726h-116.17v-439.04h107.9v62.426q27.698-44.236 49.609-58.292 22.325-14.056 50.437-14.056 39.687 0 76.481 21.911l-35.967 101.29q-29.352-19.017-54.57-19.017-24.392 0-41.342 13.643-16.95 13.229-26.872 48.369-9.508 35.141-9.508 147.18v135.6z"/><path d="m18561 11500q0-57.877 28.525-112.03 28.526-54.158 80.616-82.683 52.503-28.526 117-28.526 99.632 0 163.3 64.906 63.665 64.493 63.665 163.3 0 99.633-64.492 165.37-64.079 65.319-161.64 65.319-60.359 0-115.34-27.285-54.57-27.286-83.096-79.789-28.525-52.917-28.525-128.57zm119.06 6.202q0 65.319 31.006 100.05 31.006 34.726 76.481 34.726 45.476 0 76.068-34.726 31.006-34.727 31.006-100.87 0-64.493-31.006-99.219-30.592-34.727-76.068-34.727-45.475 0-76.481 34.727-31.006 34.726-31.006 100.05z"/><path d="m19226 11726-176.94-439.04h121.96l82.682 224.07 23.978 74.828q9.509-28.526 11.989-37.621 5.788-18.603 12.402-37.207l83.51-224.07h119.48l-174.46 439.04h-104.59z"/><path d="m19578 11227v-107.49h116.17v107.49h-116.17zm0 498.58v-439.04h116.17v439.04h-116.17z"/><path d="m20212 11726h-116.17v-224.07q0-71.107-7.442-91.778-7.441-21.084-24.391-32.659-16.536-11.576-40.101-11.576-30.179 0-54.157 16.537-23.978 16.536-33.073 43.822-8.682 27.285-8.682 100.87v198.85h-116.17v-439.04h107.9v64.493q57.464-74.415 144.69-74.415 38.448 0 70.281 14.056 31.832 13.643 47.956 35.141 16.536 21.497 22.737 48.782 6.615 27.286 6.615 78.135v272.85z"/><path d="m20713 11417-114.52 20.671q-5.788-34.314-26.458-51.677-20.257-17.363-52.917-17.363-43.408 0-69.453 30.179-25.632 29.766-25.632 100.05 0 78.135 26.045 110.38 26.458 32.246 70.694 32.246 33.073 0 54.157-18.603 21.084-19.017 29.765-64.906l114.1 19.43q-17.776 78.549-68.213 118.65-50.436 40.101-135.19 40.101-96.325 0-153.79-60.772-57.051-60.772-57.051-168.26 0-108.73 57.464-169.09 57.464-60.772 155.44-60.772 80.202 0 127.33 34.727 47.542 34.313 68.213 105.01z"/><path d="m21056 11586 115.76 19.431q-22.324 63.665-70.694 97.152-47.956 33.073-120.3 33.073-114.52 0-169.5-74.828-43.409-59.945-43.409-151.31 0-109.14 57.051-170.74 57.051-62.012 144.28-62.012 97.979 0 154.62 64.906 56.638 64.493 54.157 198.02h-291.04q1.241 51.677 28.112 80.616 26.872 28.525 66.973 28.525 27.286 0 45.889-14.883 18.604-14.883 28.112-47.956zm6.615-117.41q-1.24-50.436-26.045-76.481-24.805-26.459-60.359-26.459-38.034 0-62.838 27.699-24.805 27.699-24.392 75.241h173.63z"/><path d="m21510 11726v-606.06h119.06l248.05 404.73v-404.73h113.69v606.06h-122.78l-244.33-395.22v395.22h-113.69z"/><path d="m22093 11500q0-57.877 28.526-112.03 28.525-54.158 80.615-82.683 52.504-28.526 117-28.526 99.633 0 163.3 64.906 63.666 64.493 63.666 163.3 0 99.633-64.493 165.37-64.079 65.319-161.64 65.319-60.359 0-115.34-27.285-54.571-27.286-83.096-79.789-28.526-52.917-28.526-128.57zm119.06 6.202q0 65.319 31.006 100.05 31.006 34.726 76.481 34.726 45.476 0 76.068-34.726 31.006-34.727 31.006-100.87 0-64.493-31.006-99.219-30.592-34.727-76.068-34.727-45.475 0-76.481 34.727-31.006 34.726-31.006 100.05z"/><path d="m22637 11726v-116.17h116.17v116.17h-116.17z"/><path d="m23310 11726v-121.96h-248.05v-101.7l262.93-384.89h97.566v384.47h75.241v102.11h-75.241v121.96h-112.45zm0-224.07v-207.12l-139.32 207.12h139.32z"/>
  <path d="m2820.6 20120v-606.06h196.37q111.62 0 145.52 9.096 52.09 13.642 87.23 59.531 35.14 45.475 35.14 117.82 0 55.81-20.257 93.844t-51.677 59.945q-31.006 21.498-63.252 28.526-43.822 8.682-126.92 8.682h-79.789v228.62h-122.37zm122.37-503.54v171.98h66.973q72.347 0 96.739-9.509 24.391-9.508 38.034-29.766 14.056-20.257 14.056-47.129 0-33.073-19.43-54.57-19.43-21.498-49.196-26.872-21.911-4.134-88.057-4.134h-59.118z"/><path d="m3496.5 20120h-116.17v-439.04h107.9v62.426q27.699-44.236 49.61-58.292 22.324-14.056 50.436-14.056 39.688 0 76.481 21.911l-35.967 101.29q-29.352-19.017-54.57-19.017-24.391 0-41.341 13.643-16.95 13.229-26.872 48.369-9.5085 35.141-9.5085 147.18v135.6z"/><path d="m3687.5 19894q0-57.877 28.526-112.03 28.526-54.158 80.616-82.683 52.503-28.526 117-28.526 99.632 0 163.3 64.906 63.666 64.493 63.666 163.3 0 99.633-64.492 165.37-64.079 65.319-161.64 65.319-60.358 0-115.34-27.285-54.571-27.286-83.096-79.789-28.526-52.917-28.526-128.57zm119.06 6.202q0 65.319 31.006 100.05 31.006 34.726 76.481 34.726t76.068-34.726q31.006-34.727 31.006-100.87 0-64.493-31.006-99.219-30.593-34.727-76.068-34.727t-76.481 34.727q-31.006 34.726-31.006 100.05z"/><path d="m4352.7 20120-176.94-439.04h121.96l82.683 224.07 23.978 74.828q9.5085-28.526 11.989-37.621 5.7878-18.603 12.402-37.207l83.509-224.07h119.48l-174.46 439.04h-104.59z"/><path d="m4704.9 19621v-107.49h116.17v107.49h-116.17zm0 498.58v-439.04h116.17v439.04h-116.17z"/><path d="m5339.1 20120h-116.17v-224.07q0-71.107-7.4415-91.778-7.4414-21.084-24.391-32.659-16.537-11.576-40.101-11.576-30.179 0-54.157 16.537-23.978 16.536-33.073 43.822-8.6817 27.285-8.6817 100.87v198.85h-116.17v-439.04h107.9v64.493q57.464-74.415 144.69-74.415 38.447 0 70.28 14.056 31.833 13.643 47.956 35.141 16.536 21.497 22.738 48.782 6.6146 27.286 6.6146 78.135v272.85z"/><path d="m5840.2 19811-114.52 20.671q-5.7877-34.314-26.458-51.677-20.257-17.363-52.917-17.363-43.408 0-69.453 30.179-25.632 29.766-25.632 100.05 0 78.135 26.045 110.38 26.458 32.246 70.694 32.246 33.073 0 54.157-18.603 21.084-19.017 29.766-64.906l114.1 19.43q-17.777 78.549-68.213 118.65t-135.19 40.101q-96.325 0-153.79-60.772-57.051-60.772-57.051-168.26 0-108.73 57.464-169.09 57.464-60.772 155.44-60.772 80.202 0 127.33 34.727 47.542 34.313 68.213 105.01z"/><path d="m6182.9 19980 115.76 19.431q-22.324 63.665-70.694 97.152-47.956 33.073-120.3 33.073-114.52 0-169.5-74.828-43.408-59.945-43.408-151.31 0-109.14 57.051-170.74 57.051-62.012 144.28-62.012 97.979 0 154.62 64.906 56.638 64.493 54.157 198.02h-291.04q1.2402 51.677 28.112 80.616 26.872 28.525 66.973 28.525 27.285 0 45.889-14.883t28.112-47.956zm6.6146-117.41q-1.2402-50.436-26.045-76.481-24.805-26.459-60.358-26.459-38.034 0-62.839 27.699t-24.391 75.241h173.63z"/><path d="m6636.8 20120v-606.06h119.06l248.05 404.73v-404.73h113.69v606.06h-122.78l-244.33-395.22v395.22h-113.69z"/><path d="m7219.7 19894q0-57.877 28.526-112.03 28.526-54.158 80.616-82.683 52.503-28.526 117-28.526 99.632 0 163.3 64.906 63.666 64.493 63.666 163.3 0 99.633-64.492 165.37-64.079 65.319-161.64 65.319-60.358 0-115.34-27.285-54.571-27.286-83.096-79.789-28.526-52.917-28.526-128.57zm119.06 6.202q0 65.319 31.006 100.05 31.006 34.726 76.481 34.726t76.068-34.726q31.006-34.727 31.006-100.87 0-64.493-31.006-99.219-30.593-34.727-76.068-34.727-45.476 0-76.481 34.727-31.006 34.726-31.006 100.05z"/><path d="m7764.2 20120v-116.17h116.17v116.17h-116.17z"/><path d="m8210.7 19964 115.76-11.989q4.9609 39.275 29.352 62.426 24.391 22.737 56.224 22.737 36.38 0 61.598-29.352 25.218-29.766 25.218-89.297 0-55.811-25.218-83.51-24.805-28.112-64.906-28.112-50.023 0-89.711 44.235l-94.258-13.642 59.531-315.43h307.17v108.73h-219.11l-18.19 102.94q38.861-19.43 79.375-19.43 77.308 0 131.05 56.224 53.744 56.224 53.744 145.94 0 74.828-43.408 133.53-59.118 80.202-164.12 80.202-83.923 0-136.84-45.062t-63.252-121.13z"/>
  <path d="m9299.6 5884v-606.06h196.37q111.62 0 145.52 9.0951 52.09 13.643 87.23 59.532 35.14 45.475 35.14 117.82 0 55.811-20.257 93.845t-51.677 59.945q-31.006 21.498-63.252 28.526-43.822 8.6817-126.92 8.6817h-79.789v228.62h-122.37zm122.37-503.54v171.98h66.973q72.347 0 96.739-9.5085 24.391-9.5085 38.034-29.766 14.056-20.257 14.056-47.129 0-33.073-19.43-54.57-19.43-21.498-49.196-26.872-21.911-4.1341-88.057-4.1341h-59.118z"/><path d="m9975.5 5884h-116.17v-439.04h107.9v62.425q27.699-44.235 49.609-58.291 22.325-14.056 50.437-14.056 39.687 0 76.481 21.911l-35.967 101.29q-29.352-19.017-54.57-19.017-24.392 0-41.342 13.643-16.95 13.229-26.872 48.369-9.5085 35.14-9.5085 147.18v135.6z"/><path d="m10167 5658.3q0-57.878 28.525-112.04 28.526-54.157 80.616-82.683 52.503-28.526 117-28.526 99.632 0 163.3 64.906 63.665 64.492 63.665 163.3 0 99.633-64.492 165.37-64.079 65.319-161.64 65.319-60.359 0-115.34-27.285-54.57-27.285-83.096-79.789-28.525-52.917-28.525-128.57zm119.06 6.2012q0 65.319 31.006 100.05 31.006 34.727 76.481 34.727 45.476 0 76.068-34.727 31.006-34.727 31.006-100.87 0-64.492-31.006-99.219-30.592-34.727-76.068-34.727-45.475 0-76.481 34.727t-31.006 100.05z"/><path d="m10832 5884-176.94-439.04h121.96l82.682 224.07 23.978 74.828q9.509-28.526 11.989-37.621 5.788-18.604 12.402-37.207l83.51-224.07h119.48l-174.46 439.04h-104.59z"/><path d="m11184 5385.4v-107.49h116.17v107.49h-116.17zm0 498.58v-439.04h116.17v439.04h-116.17z"/><path d="m11818 5884h-116.17v-224.07q0-71.107-7.442-91.778-7.441-21.084-24.391-32.66-16.536-11.576-40.101-11.576-30.179 0-54.157 16.536-23.978 16.537-33.073 43.822-8.682 27.285-8.682 100.87v198.85h-116.17v-439.04h107.9v64.492q57.464-74.414 144.69-74.414 38.448 0 70.281 14.056 31.832 13.643 47.956 35.14 16.536 21.497 22.737 48.783 6.615 27.285 6.615 78.135v272.85z"/><path d="m12319 5574.8-114.52 20.671q-5.788-34.313-26.458-51.677-20.257-17.363-52.917-17.363-43.408 0-69.453 30.179-25.632 29.766-25.632 100.05 0 78.135 26.045 110.38 26.458 32.246 70.694 32.246 33.073 0 54.157-18.604 21.084-19.017 29.765-64.906l114.1 19.43q-17.776 78.548-68.213 118.65-50.436 40.101-135.19 40.101-96.325 0-153.79-60.772-57.051-60.772-57.051-168.26 0-108.73 57.464-169.09 57.464-60.772 155.44-60.772 80.202 0 127.33 34.727 47.542 34.313 68.213 105.01z"/><path d="m12662 5744.3 115.76 19.43q-22.324 63.666-70.694 97.152-47.956 33.073-120.3 33.073-114.52 0-169.5-74.828-43.409-59.945-43.409-151.31 0-109.14 57.051-170.74 57.051-62.012 144.28-62.012 97.979 0 154.62 64.906 56.638 64.492 54.157 198.02h-291.04q1.241 51.677 28.112 80.616 26.872 28.526 66.973 28.526 27.286 0 45.889-14.883 18.604-14.883 28.112-47.956zm6.615-117.41q-1.24-50.436-26.045-76.482-24.805-26.458-60.359-26.458-38.034 0-62.838 27.699-24.805 27.699-24.392 75.241h173.63z"/><path d="m13116 5884v-606.06h119.06l248.05 404.73v-404.73h113.69v606.06h-122.78l-244.33-395.22v395.22h-113.69z"/><path d="m13699 5658.3q0-57.878 28.526-112.04 28.525-54.157 80.615-82.683 52.504-28.526 117-28.526 99.633 0 163.3 64.906 63.666 64.492 63.666 163.3 0 99.633-64.493 165.37-64.079 65.319-161.64 65.319-60.359 0-115.34-27.285-54.571-27.285-83.096-79.789-28.526-52.917-28.526-128.57zm119.06 6.2012q0 65.319 31.006 100.05 31.006 34.727 76.481 34.727 45.476 0 76.068-34.727 31.006-34.727 31.006-100.87 0-64.492-31.006-99.219-30.592-34.727-76.068-34.727-45.475 0-76.481 34.727t-31.006 100.05z"/><path d="m14243 5884v-116.17h116.17v116.17h-116.17z"/><path d="m15082 5426.4-112.45 12.402q-4.134-34.727-21.497-51.263t-45.062-16.536q-36.794 0-62.425 33.073-25.219 33.073-31.833 137.67 43.408-51.263 107.9-51.263 72.76 0 124.44 55.397 52.09 55.397 52.09 143.04 0 93.018-54.571 149.24-54.57 56.224-140.15 56.224-91.777 0-150.9-71.107-59.118-71.52-59.118-233.99 0-166.61 61.598-240.19 61.599-73.588 159.99-73.588 69.04 0 114.1 38.861 45.475 38.447 57.878 112.03zm-263.34 253.42q0 56.638 26.045 87.644 26.045 30.593 59.531 30.593 32.246 0 53.744-25.218 21.497-25.218 21.497-82.683 0-59.118-23.151-86.403-23.151-27.699-57.878-27.699-33.486 0-56.637 26.458-23.151 26.045-23.151 77.308z"/>
  <path d="m-4837.4 3872v-606.06h196.37q111.62 0 145.52 9.0951 52.09 13.643 87.23 59.532 35.14 45.475 35.14 117.82 0 55.811-20.257 93.845t-51.677 59.945q-31.006 21.498-63.252 28.526-43.822 8.6817-126.92 8.6817h-79.789v228.62h-122.37zm122.37-503.54v171.98h66.973q72.347 0 96.739-9.5085 24.391-9.5085 38.034-29.766 14.056-20.257 14.056-47.129 0-33.073-19.43-54.57-19.43-21.498-49.196-26.872-21.911-4.1341-88.057-4.1341h-59.118z"/><path d="m-4161.5 3872h-116.17v-439.04h107.9v62.425q27.699-44.235 49.61-58.291 22.324-14.056 50.436-14.056 39.688 0 76.481 21.911l-35.967 101.29q-29.352-19.017-54.57-19.017-24.391 0-41.341 13.643-16.95 13.229-26.872 48.369-9.5085 35.14-9.5085 147.18v135.6z"/><path d="m-3970.5 3646.3q0-57.878 28.526-112.04 28.526-54.157 80.616-82.683 52.503-28.526 117-28.526 99.632 0 163.3 64.906 63.666 64.492 63.666 163.3 0 99.633-64.492 165.37-64.079 65.319-161.64 65.319-60.358 0-115.34-27.285-54.571-27.285-83.096-79.789-28.526-52.917-28.526-128.57zm119.06 6.2012q0 65.319 31.006 100.05 31.006 34.727 76.481 34.727t76.068-34.727q31.006-34.727 31.006-100.87 0-64.492-31.006-99.219-30.593-34.727-76.068-34.727t-76.481 34.727-31.006 100.05z"/><path d="m-3305.3 3872-176.94-439.04h121.96l82.683 224.07 23.978 74.828q9.5085-28.526 11.989-37.621 5.7878-18.604 12.402-37.207l83.509-224.07h119.48l-174.46 439.04h-104.59z"/><path d="m-2953.1 3373.4v-107.49h116.17v107.49h-116.17zm0 498.58v-439.04h116.17v439.04h-116.17z"/><path d="m-2318.9 3872h-116.17v-224.07q0-71.107-7.4415-91.778-7.4414-21.084-24.391-32.66-16.537-11.576-40.101-11.576-30.179 0-54.157 16.536-23.978 16.537-33.073 43.822-8.6817 27.285-8.6817 100.87v198.85h-116.17v-439.04h107.9v64.492q57.464-74.414 144.69-74.414 38.447 0 70.28 14.056 31.833 13.643 47.956 35.14 16.536 21.497 22.738 48.783 6.6146 27.285 6.6146 78.135v272.85z"/><path d="m-1817.8 3562.8-114.52 20.671q-5.7877-34.313-26.458-51.677-20.257-17.363-52.917-17.363-43.408 0-69.453 30.179-25.632 29.766-25.632 100.05 0 78.135 26.045 110.38 26.458 32.246 70.694 32.246 33.073 0 54.157-18.604 21.084-19.017 29.766-64.906l114.1 19.43q-17.777 78.548-68.213 118.65-50.436 40.101-135.19 40.101-96.325 0-153.79-60.772-57.051-60.772-57.051-168.26 0-108.73 57.464-169.09 57.464-60.772 155.44-60.772 80.202 0 127.33 34.727 47.542 34.313 68.213 105.01z"/><path d="m-1475.1 3732.3 115.76 19.43q-22.324 63.666-70.694 97.152-47.956 33.073-120.3 33.073-114.52 0-169.5-74.828-43.408-59.945-43.408-151.31 0-109.14 57.051-170.74 57.051-62.012 144.28-62.012 97.979 0 154.62 64.906 56.638 64.492 54.157 198.02h-291.04q1.2402 51.677 28.112 80.616 26.872 28.526 66.973 28.526 27.285 0 45.889-14.883t28.112-47.956zm6.6146-117.41q-1.2402-50.436-26.045-76.482-24.805-26.458-60.358-26.458-38.034 0-62.839 27.699t-24.391 75.241h173.63z"/><path d="m-1021.2 3872v-606.06h119.06l248.05 404.73v-404.73h113.69v606.06h-122.78l-244.33-395.22v395.22h-113.69z"/><path d="m-438.27 3646.3q0-57.878 28.526-112.04 28.526-54.157 80.616-82.683 52.503-28.526 117-28.526 99.633 0 163.3 64.906 63.666 64.492 63.666 163.3 0 99.633-64.492 165.37-64.079 65.319-161.64 65.319-60.358 0-115.34-27.285-54.571-27.285-83.096-79.789-28.526-52.917-28.526-128.57zm119.06 6.2012q0 65.319 31.006 100.05 31.006 34.727 76.481 34.727t76.068-34.727q31.006-34.727 31.006-100.87 0-64.492-31.006-99.219-30.593-34.727-76.068-34.727t-76.481 34.727-31.006 100.05z"/><path d="m106.19 3872v-116.17h116.17v116.17h-116.17z"/><path d="m551.02 3382.1v-107.9h397.29v84.336q-49.196 48.369-100.05 138.91-50.85 90.537-77.722 192.65-26.45 101.7-26.04 181.9h-112.03q2.8939-125.68 51.677-256.32 49.196-130.64 131.05-233.58h-264.17z"/>
 </g>
</svg>
